%TF.GenerationSoftware,KiCad,Pcbnew,7.0.6*%
%TF.CreationDate,2024-01-12T02:35:33-05:00*%
%TF.ProjectId,PSA_Controller,5053415f-436f-46e7-9472-6f6c6c65722e,rev?*%
%TF.SameCoordinates,Original*%
%TF.FileFunction,Copper,L2,Bot*%
%TF.FilePolarity,Positive*%
%FSLAX46Y46*%
G04 Gerber Fmt 4.6, Leading zero omitted, Abs format (unit mm)*
G04 Created by KiCad (PCBNEW 7.0.6) date 2024-01-12 02:35:33*
%MOMM*%
%LPD*%
G01*
G04 APERTURE LIST*
%TA.AperFunction,ComponentPad*%
%ADD10C,2.032000*%
%TD*%
%TA.AperFunction,ComponentPad*%
%ADD11R,2.032000X2.032000*%
%TD*%
%TA.AperFunction,ViaPad*%
%ADD12C,0.800000*%
%TD*%
%TA.AperFunction,Conductor*%
%ADD13C,0.250000*%
%TD*%
%TA.AperFunction,Conductor*%
%ADD14C,1.016000*%
%TD*%
G04 APERTURE END LIST*
D10*
%TO.P,J10,4,Pin_4*%
%TO.N,D14*%
X55800000Y6500000D03*
%TO.P,J10,3,Pin_3*%
%TO.N,GND*%
X52300000Y6500000D03*
%TO.P,J10,2,Pin_2*%
%TO.N,D15*%
X48800000Y6500000D03*
D11*
%TO.P,J10,1,Pin_1*%
%TO.N,GND*%
X45300000Y6500000D03*
%TD*%
%TO.P,J9,1,Pin_1*%
%TO.N,A2*%
X28300000Y43500000D03*
D10*
%TO.P,J9,2,Pin_2*%
%TO.N,GND*%
X24800000Y43500000D03*
%TO.P,J9,3,Pin_3*%
%TO.N,A3*%
X21300000Y43500000D03*
%TO.P,J9,4,Pin_4*%
%TO.N,GND*%
X17800000Y43500000D03*
%TD*%
D11*
%TO.P,J8,1,Pin_1*%
%TO.N,GND*%
X59300000Y6500000D03*
D10*
%TO.P,J8,2,Pin_2*%
%TO.N,D16*%
X62800000Y6500000D03*
%TO.P,J8,3,Pin_3*%
%TO.N,GND*%
X66300000Y6500000D03*
%TO.P,J8,4,Pin_4*%
%TO.N,D10*%
X69800000Y6500000D03*
%TD*%
D11*
%TO.P,J7,1,Pin_1*%
%TO.N,GND*%
X31300000Y6500000D03*
D10*
%TO.P,J7,2,Pin_2*%
%TO.N,D8*%
X34800000Y6500000D03*
%TO.P,J7,3,Pin_3*%
%TO.N,GND*%
X38300000Y6500000D03*
%TO.P,J7,4,Pin_4*%
%TO.N,D9*%
X41800000Y6500000D03*
%TD*%
D11*
%TO.P,J6,1,Pin_1*%
%TO.N,GND*%
X17300000Y6500000D03*
D10*
%TO.P,J6,2,Pin_2*%
%TO.N,D6*%
X20800000Y6500000D03*
%TO.P,J6,3,Pin_3*%
%TO.N,GND*%
X24300000Y6500000D03*
%TO.P,J6,4,Pin_4*%
%TO.N,D7*%
X27800000Y6500000D03*
%TD*%
D11*
%TO.P,J5,1,Pin_1*%
%TO.N,GND*%
X3300000Y6500000D03*
D10*
%TO.P,J5,2,Pin_2*%
X6800000Y6500000D03*
%TO.P,J5,3,Pin_3*%
X10300000Y6500000D03*
%TO.P,J5,4,Pin_4*%
X13800000Y6500000D03*
%TD*%
D11*
%TO.P,J4,1,Pin_1*%
%TO.N,A0IN*%
X42300000Y43500000D03*
D10*
%TO.P,J4,2,Pin_2*%
%TO.N,GND*%
X38800000Y43500000D03*
%TO.P,J4,3,Pin_3*%
%TO.N,A1IN*%
X35300000Y43500000D03*
%TO.P,J4,4,Pin_4*%
%TO.N,GND*%
X31800000Y43500000D03*
%TD*%
%TO.P,J3,4,Pin_4*%
%TO.N,FET4B*%
X59800000Y43500000D03*
%TO.P,J3,3,Pin_3*%
%TO.N,12V*%
X63300000Y43500000D03*
%TO.P,J3,2,Pin_2*%
%TO.N,FET5B*%
X66800000Y43500000D03*
D11*
%TO.P,J3,1,Pin_1*%
%TO.N,12V*%
X70300000Y43500000D03*
%TD*%
D10*
%TO.P,J2,4,Pin_4*%
%TO.N,FET2B*%
X45800000Y43500000D03*
%TO.P,J2,3,Pin_3*%
%TO.N,12V*%
X49300000Y43500000D03*
%TO.P,J2,2,Pin_2*%
%TO.N,FET3B*%
X52800000Y43500000D03*
D11*
%TO.P,J2,1,Pin_1*%
%TO.N,12V*%
X56300000Y43500000D03*
%TD*%
%TO.P,J1,1,Pin_1*%
%TO.N,5V*%
X14300000Y43500000D03*
D10*
%TO.P,J1,2,Pin_2*%
%TO.N,GND*%
X10800000Y43500000D03*
%TO.P,J1,3,Pin_3*%
%TO.N,12V*%
X7300000Y43500000D03*
%TO.P,J1,4,Pin_4*%
%TO.N,GND*%
X3800000Y43500000D03*
%TD*%
D12*
%TO.N,GND*%
X46050000Y21500000D03*
X52550000Y21500000D03*
X52550000Y18000000D03*
X52550000Y20000000D03*
X60050000Y18250000D03*
X60050000Y21250000D03*
X60050000Y19750000D03*
X66550000Y18250000D03*
X66550000Y21250000D03*
X66550000Y19750000D03*
X46050000Y18000000D03*
X46050000Y20000000D03*
%TO.N,D10*%
X36800000Y24000000D03*
X70800000Y24000000D03*
%TO.N,D5*%
X69300000Y12750000D03*
X24050000Y12750000D03*
%TO.N,D4*%
X21300000Y19250000D03*
X57050000Y19250000D03*
%TO.N,D3*%
X18800000Y20750000D03*
X55550000Y20750000D03*
%TO.N,D2*%
X16300000Y21250000D03*
X43050000Y22250000D03*
%TO.N,A0*%
X24800000Y36500000D03*
X39050000Y36500000D03*
%TO.N,A1*%
X24300000Y38500000D03*
X32050000Y38500000D03*
%TD*%
D13*
%TO.N,D10*%
X36800000Y24000000D02*
X70800000Y24000000D01*
%TO.N,D5*%
X69300000Y12750000D02*
X24050000Y12750000D01*
%TO.N,D4*%
X57050000Y19250000D02*
X21300000Y19250000D01*
%TO.N,D3*%
X55550000Y20750000D02*
X18800000Y20750000D01*
%TO.N,D2*%
X17300000Y22250000D02*
X16300000Y21250000D01*
X43050000Y22250000D02*
X17300000Y22250000D01*
D14*
%TO.N,12V*%
X63300000Y43500000D02*
X63300000Y48250000D01*
X63300000Y48250000D02*
X68550000Y48250000D01*
X56300000Y48250000D02*
X63300000Y48250000D01*
X56300000Y43500000D02*
X56300000Y48250000D01*
X49300000Y48250000D02*
X56300000Y48250000D01*
X49300000Y43500000D02*
X49300000Y48250000D01*
X8800000Y48250000D02*
X49300000Y48250000D01*
X70300000Y46500000D02*
X70300000Y43500000D01*
X7300000Y46750000D02*
X8800000Y48250000D01*
X68550000Y48250000D02*
X70300000Y46500000D01*
X7300000Y43500000D02*
X7300000Y46750000D01*
D13*
%TO.N,A0*%
X24800000Y36500000D02*
X39050000Y36500000D01*
%TO.N,A1*%
X24300000Y38500000D02*
X32050000Y38500000D01*
%TD*%
%TA.AperFunction,Conductor*%
%TO.N,GND*%
G36*
X54665616Y20116488D02*
G01*
X54668263Y20115487D01*
X54724009Y20073367D01*
X54748133Y20007794D01*
X54732977Y19939588D01*
X54683352Y19890404D01*
X54624411Y19875500D01*
X22228236Y19875500D01*
X22184385Y19883513D01*
X22181738Y19884514D01*
X22125993Y19926633D01*
X22101869Y19992206D01*
X22117025Y20060412D01*
X22166650Y20109596D01*
X22225591Y20124500D01*
X54621766Y20124500D01*
X54665616Y20116488D01*
G37*
%TD.AperFunction*%
%TA.AperFunction,Conductor*%
G36*
X73242539Y49763815D02*
G01*
X73288294Y49711011D01*
X73299500Y49659500D01*
X73299500Y124500D01*
X73279815Y57461D01*
X73227011Y11706D01*
X73175500Y500D01*
X124500Y500D01*
X57461Y20185D01*
X11706Y72989D01*
X500Y124500D01*
X500Y6750000D01*
X1783999Y6750000D01*
X2754118Y6750000D01*
X2715444Y6656631D01*
X2694823Y6500000D01*
X2715444Y6343369D01*
X2754118Y6250000D01*
X1784000Y6250000D01*
X1784000Y5436156D01*
X1790401Y5376628D01*
X1790403Y5376621D01*
X1840645Y5241914D01*
X1840649Y5241907D01*
X1926809Y5126813D01*
X1926812Y5126810D01*
X2041906Y5040650D01*
X2041913Y5040646D01*
X2176620Y4990404D01*
X2176627Y4990402D01*
X2236155Y4984001D01*
X2236172Y4984000D01*
X3050000Y4984000D01*
X3050000Y5954119D01*
X3143369Y5915444D01*
X3260677Y5900000D01*
X3339323Y5900000D01*
X3456631Y5915444D01*
X3550000Y5954119D01*
X3550000Y4984000D01*
X4363828Y4984000D01*
X4363844Y4984001D01*
X4423372Y4990402D01*
X4423379Y4990404D01*
X4558086Y5040646D01*
X4558093Y5040650D01*
X4673187Y5126810D01*
X4673190Y5126813D01*
X4759350Y5241907D01*
X4759354Y5241914D01*
X4809596Y5376621D01*
X4809598Y5376628D01*
X4815999Y5436156D01*
X4816000Y5436173D01*
X4816000Y6250000D01*
X3845882Y6250000D01*
X3884556Y6343369D01*
X3905177Y6500000D01*
X3905177Y6500001D01*
X5279312Y6500001D01*
X5298033Y6262117D01*
X5353742Y6030075D01*
X5445056Y5809622D01*
X5563229Y5616784D01*
X6237226Y6290781D01*
X6275901Y6197412D01*
X6372075Y6072075D01*
X6497412Y5975901D01*
X6590779Y5937228D01*
X5916782Y5263231D01*
X5916782Y5263230D01*
X6109621Y5145057D01*
X6330075Y5053743D01*
X6330072Y5053743D01*
X6562116Y4998034D01*
X6800000Y4979313D01*
X7037883Y4998034D01*
X7269925Y5053743D01*
X7490374Y5145056D01*
X7683216Y5263231D01*
X7009220Y5937228D01*
X7102588Y5975901D01*
X7227925Y6072075D01*
X7324099Y6197411D01*
X7362773Y6290780D01*
X8036769Y5616784D01*
X8154944Y5809626D01*
X8246257Y6030075D01*
X8301966Y6262117D01*
X8320687Y6500000D01*
X8779312Y6500000D01*
X8798033Y6262117D01*
X8853742Y6030075D01*
X8945056Y5809622D01*
X9063229Y5616784D01*
X9737226Y6290781D01*
X9775901Y6197412D01*
X9872075Y6072075D01*
X9997412Y5975901D01*
X10090779Y5937228D01*
X9416782Y5263231D01*
X9416782Y5263230D01*
X9609621Y5145057D01*
X9830075Y5053743D01*
X9830072Y5053743D01*
X10062116Y4998034D01*
X10300000Y4979313D01*
X10537883Y4998034D01*
X10769925Y5053743D01*
X10990374Y5145056D01*
X11183216Y5263231D01*
X10509220Y5937228D01*
X10602588Y5975901D01*
X10727925Y6072075D01*
X10824099Y6197411D01*
X10862773Y6290780D01*
X11536769Y5616784D01*
X11654944Y5809626D01*
X11746257Y6030075D01*
X11801966Y6262117D01*
X11820687Y6500000D01*
X12279312Y6500000D01*
X12298033Y6262117D01*
X12353742Y6030075D01*
X12445056Y5809622D01*
X12563229Y5616784D01*
X13237226Y6290781D01*
X13275901Y6197412D01*
X13372075Y6072075D01*
X13497412Y5975901D01*
X13590779Y5937228D01*
X12916782Y5263231D01*
X12916782Y5263230D01*
X13109621Y5145057D01*
X13330075Y5053743D01*
X13330072Y5053743D01*
X13562116Y4998034D01*
X13800000Y4979313D01*
X14037883Y4998034D01*
X14269925Y5053743D01*
X14490374Y5145056D01*
X14683216Y5263231D01*
X14510291Y5436156D01*
X15784000Y5436156D01*
X15790401Y5376628D01*
X15790403Y5376621D01*
X15840645Y5241914D01*
X15840649Y5241907D01*
X15926809Y5126813D01*
X15926812Y5126810D01*
X16041906Y5040650D01*
X16041913Y5040646D01*
X16176620Y4990404D01*
X16176627Y4990402D01*
X16236155Y4984001D01*
X16236172Y4984000D01*
X17050000Y4984000D01*
X17050000Y5954119D01*
X17143369Y5915444D01*
X17260677Y5900000D01*
X17339323Y5900000D01*
X17456631Y5915444D01*
X17550000Y5954119D01*
X17550000Y4984000D01*
X18363828Y4984000D01*
X18363844Y4984001D01*
X18423372Y4990402D01*
X18423379Y4990404D01*
X18558086Y5040646D01*
X18558093Y5040650D01*
X18673187Y5126810D01*
X18673190Y5126813D01*
X18759350Y5241907D01*
X18759354Y5241914D01*
X18809596Y5376621D01*
X18809598Y5376628D01*
X18815999Y5436156D01*
X18816000Y5436173D01*
X18816000Y6250000D01*
X17845882Y6250000D01*
X17884556Y6343369D01*
X17905177Y6500000D01*
X19278811Y6500000D01*
X19297538Y6262037D01*
X19353261Y6029932D01*
X19444608Y5809400D01*
X19444610Y5809396D01*
X19444611Y5809395D01*
X19569332Y5605868D01*
X19724357Y5424357D01*
X19905868Y5269332D01*
X20109395Y5144611D01*
X20109397Y5144611D01*
X20109399Y5144609D01*
X20152363Y5126813D01*
X20329927Y5053263D01*
X20562034Y4997539D01*
X20800000Y4978811D01*
X21037966Y4997539D01*
X21270073Y5053263D01*
X21490605Y5144611D01*
X21694132Y5269332D01*
X21875643Y5424357D01*
X22030668Y5605868D01*
X22155389Y5809395D01*
X22246737Y6029927D01*
X22302461Y6262034D01*
X22321189Y6500000D01*
X22321189Y6500001D01*
X22779312Y6500001D01*
X22798033Y6262117D01*
X22853742Y6030075D01*
X22945056Y5809622D01*
X23063229Y5616784D01*
X23737226Y6290781D01*
X23775901Y6197412D01*
X23872075Y6072075D01*
X23997412Y5975901D01*
X24090779Y5937228D01*
X23416782Y5263231D01*
X23416782Y5263230D01*
X23609621Y5145057D01*
X23830075Y5053743D01*
X23830072Y5053743D01*
X24062116Y4998034D01*
X24300000Y4979313D01*
X24537883Y4998034D01*
X24769925Y5053743D01*
X24990374Y5145056D01*
X25183216Y5263231D01*
X24509220Y5937228D01*
X24602588Y5975901D01*
X24727925Y6072075D01*
X24824099Y6197411D01*
X24862773Y6290781D01*
X25536769Y5616784D01*
X25654944Y5809626D01*
X25746257Y6030075D01*
X25801966Y6262117D01*
X25820687Y6500000D01*
X26278811Y6500000D01*
X26297538Y6262037D01*
X26353261Y6029932D01*
X26444608Y5809400D01*
X26444610Y5809396D01*
X26444611Y5809395D01*
X26569332Y5605868D01*
X26724357Y5424357D01*
X26905868Y5269332D01*
X27109395Y5144611D01*
X27109397Y5144611D01*
X27109399Y5144609D01*
X27152363Y5126813D01*
X27329927Y5053263D01*
X27562034Y4997539D01*
X27800000Y4978811D01*
X28037966Y4997539D01*
X28270073Y5053263D01*
X28490605Y5144611D01*
X28694132Y5269332D01*
X28875643Y5424357D01*
X28885720Y5436156D01*
X29784000Y5436156D01*
X29790401Y5376628D01*
X29790403Y5376621D01*
X29840645Y5241914D01*
X29840649Y5241907D01*
X29926809Y5126813D01*
X29926812Y5126810D01*
X30041906Y5040650D01*
X30041913Y5040646D01*
X30176620Y4990404D01*
X30176627Y4990402D01*
X30236155Y4984001D01*
X30236172Y4984000D01*
X31049999Y4984000D01*
X31049999Y5954119D01*
X31143369Y5915444D01*
X31260677Y5900000D01*
X31339323Y5900000D01*
X31456631Y5915444D01*
X31550000Y5954119D01*
X31550000Y4984000D01*
X32363828Y4984000D01*
X32363844Y4984001D01*
X32423372Y4990402D01*
X32423379Y4990404D01*
X32558086Y5040646D01*
X32558093Y5040650D01*
X32673187Y5126810D01*
X32673190Y5126813D01*
X32759350Y5241907D01*
X32759354Y5241914D01*
X32809596Y5376621D01*
X32809598Y5376628D01*
X32815999Y5436156D01*
X32816000Y5436173D01*
X32816000Y6250000D01*
X31845882Y6250000D01*
X31884556Y6343369D01*
X31905177Y6500000D01*
X33278811Y6500000D01*
X33297538Y6262037D01*
X33353261Y6029932D01*
X33444608Y5809400D01*
X33444610Y5809396D01*
X33444611Y5809395D01*
X33569332Y5605868D01*
X33724357Y5424357D01*
X33905868Y5269332D01*
X34109395Y5144611D01*
X34109397Y5144611D01*
X34109399Y5144609D01*
X34152363Y5126813D01*
X34329927Y5053263D01*
X34562034Y4997539D01*
X34800000Y4978811D01*
X35037966Y4997539D01*
X35270073Y5053263D01*
X35490605Y5144611D01*
X35694132Y5269332D01*
X35875643Y5424357D01*
X36030668Y5605868D01*
X36155389Y5809395D01*
X36246737Y6029927D01*
X36302461Y6262034D01*
X36321189Y6500000D01*
X36779312Y6500000D01*
X36798033Y6262117D01*
X36853742Y6030075D01*
X36945056Y5809622D01*
X37063229Y5616784D01*
X37737226Y6290781D01*
X37775901Y6197412D01*
X37872075Y6072075D01*
X37997412Y5975901D01*
X38090779Y5937228D01*
X37416782Y5263231D01*
X37416782Y5263230D01*
X37609621Y5145057D01*
X37830075Y5053743D01*
X37830072Y5053743D01*
X38062116Y4998034D01*
X38300000Y4979313D01*
X38537883Y4998034D01*
X38769925Y5053743D01*
X38990374Y5145056D01*
X39183216Y5263231D01*
X38509220Y5937228D01*
X38602588Y5975901D01*
X38727925Y6072075D01*
X38824099Y6197411D01*
X38862773Y6290780D01*
X39536769Y5616784D01*
X39654944Y5809626D01*
X39746257Y6030075D01*
X39801966Y6262117D01*
X39820687Y6500000D01*
X40278811Y6500000D01*
X40297538Y6262037D01*
X40353261Y6029932D01*
X40444608Y5809400D01*
X40444610Y5809396D01*
X40444611Y5809395D01*
X40569332Y5605868D01*
X40724357Y5424357D01*
X40905868Y5269332D01*
X41109395Y5144611D01*
X41109397Y5144611D01*
X41109399Y5144609D01*
X41152363Y5126813D01*
X41329927Y5053263D01*
X41562034Y4997539D01*
X41800000Y4978811D01*
X42037966Y4997539D01*
X42270073Y5053263D01*
X42490605Y5144611D01*
X42694132Y5269332D01*
X42875643Y5424357D01*
X42885720Y5436156D01*
X43784000Y5436156D01*
X43790401Y5376628D01*
X43790403Y5376621D01*
X43840645Y5241914D01*
X43840649Y5241907D01*
X43926809Y5126813D01*
X43926812Y5126810D01*
X44041906Y5040650D01*
X44041913Y5040646D01*
X44176620Y4990404D01*
X44176627Y4990402D01*
X44236155Y4984001D01*
X44236172Y4984000D01*
X45050000Y4984000D01*
X45050000Y5954119D01*
X45143369Y5915444D01*
X45260677Y5900000D01*
X45339323Y5900000D01*
X45456631Y5915444D01*
X45549999Y5954119D01*
X45550000Y4984000D01*
X46363828Y4984000D01*
X46363844Y4984001D01*
X46423372Y4990402D01*
X46423379Y4990404D01*
X46558086Y5040646D01*
X46558093Y5040650D01*
X46673187Y5126810D01*
X46673190Y5126813D01*
X46759350Y5241907D01*
X46759354Y5241914D01*
X46809596Y5376621D01*
X46809598Y5376628D01*
X46815999Y5436156D01*
X46816000Y5436173D01*
X46816000Y6250000D01*
X45845882Y6250000D01*
X45884556Y6343369D01*
X45905177Y6500000D01*
X47278811Y6500000D01*
X47297538Y6262037D01*
X47353261Y6029932D01*
X47444608Y5809400D01*
X47444610Y5809396D01*
X47444611Y5809395D01*
X47569332Y5605868D01*
X47724357Y5424357D01*
X47905868Y5269332D01*
X48109395Y5144611D01*
X48109397Y5144611D01*
X48109399Y5144609D01*
X48152363Y5126813D01*
X48329927Y5053263D01*
X48562034Y4997539D01*
X48800000Y4978811D01*
X49037966Y4997539D01*
X49270073Y5053263D01*
X49490605Y5144611D01*
X49694132Y5269332D01*
X49875643Y5424357D01*
X50030668Y5605868D01*
X50155389Y5809395D01*
X50246737Y6029927D01*
X50302461Y6262034D01*
X50321189Y6500000D01*
X50321189Y6500001D01*
X50779312Y6500001D01*
X50798033Y6262117D01*
X50853742Y6030075D01*
X50945056Y5809622D01*
X51063229Y5616784D01*
X51737226Y6290781D01*
X51775901Y6197412D01*
X51872075Y6072075D01*
X51997412Y5975901D01*
X52090779Y5937228D01*
X51416782Y5263231D01*
X51416782Y5263230D01*
X51609621Y5145057D01*
X51830075Y5053743D01*
X51830072Y5053743D01*
X52062116Y4998034D01*
X52300000Y4979313D01*
X52537883Y4998034D01*
X52769925Y5053743D01*
X52990374Y5145056D01*
X53183216Y5263231D01*
X52509220Y5937228D01*
X52602588Y5975901D01*
X52727925Y6072075D01*
X52824099Y6197411D01*
X52862773Y6290781D01*
X53536769Y5616784D01*
X53654944Y5809626D01*
X53746257Y6030075D01*
X53801966Y6262117D01*
X53820687Y6500000D01*
X54278811Y6500000D01*
X54297538Y6262037D01*
X54353261Y6029932D01*
X54444608Y5809400D01*
X54444610Y5809396D01*
X54444611Y5809395D01*
X54569332Y5605868D01*
X54724357Y5424357D01*
X54905868Y5269332D01*
X55109395Y5144611D01*
X55109397Y5144611D01*
X55109399Y5144609D01*
X55152363Y5126813D01*
X55329927Y5053263D01*
X55562034Y4997539D01*
X55800000Y4978811D01*
X56037966Y4997539D01*
X56270073Y5053263D01*
X56490605Y5144611D01*
X56694132Y5269332D01*
X56875643Y5424357D01*
X56885720Y5436156D01*
X57784000Y5436156D01*
X57790401Y5376628D01*
X57790403Y5376621D01*
X57840645Y5241914D01*
X57840649Y5241907D01*
X57926809Y5126813D01*
X57926812Y5126810D01*
X58041906Y5040650D01*
X58041913Y5040646D01*
X58176620Y4990404D01*
X58176627Y4990402D01*
X58236155Y4984001D01*
X58236172Y4984000D01*
X59050000Y4984000D01*
X59050000Y5954119D01*
X59143369Y5915444D01*
X59260677Y5900000D01*
X59339323Y5900000D01*
X59456631Y5915444D01*
X59550000Y5954119D01*
X59550000Y4984000D01*
X60363828Y4984000D01*
X60363844Y4984001D01*
X60423372Y4990402D01*
X60423379Y4990404D01*
X60558086Y5040646D01*
X60558093Y5040650D01*
X60673187Y5126810D01*
X60673190Y5126813D01*
X60759350Y5241907D01*
X60759354Y5241914D01*
X60809596Y5376621D01*
X60809598Y5376628D01*
X60815999Y5436156D01*
X60816000Y5436173D01*
X60816000Y6250000D01*
X59845882Y6250000D01*
X59884556Y6343369D01*
X59905177Y6500000D01*
X61278811Y6500000D01*
X61297538Y6262037D01*
X61353261Y6029932D01*
X61444608Y5809400D01*
X61444610Y5809396D01*
X61444611Y5809395D01*
X61569332Y5605868D01*
X61724357Y5424357D01*
X61905868Y5269332D01*
X62109395Y5144611D01*
X62109397Y5144611D01*
X62109399Y5144609D01*
X62152363Y5126813D01*
X62329927Y5053263D01*
X62562034Y4997539D01*
X62800000Y4978811D01*
X63037966Y4997539D01*
X63270073Y5053263D01*
X63490605Y5144611D01*
X63694132Y5269332D01*
X63875643Y5424357D01*
X64030668Y5605868D01*
X64155389Y5809395D01*
X64246737Y6029927D01*
X64302461Y6262034D01*
X64321189Y6500000D01*
X64779312Y6500000D01*
X64798033Y6262117D01*
X64853742Y6030075D01*
X64945056Y5809622D01*
X65063229Y5616784D01*
X65737226Y6290781D01*
X65775901Y6197412D01*
X65872075Y6072075D01*
X65997412Y5975901D01*
X66090779Y5937228D01*
X65416782Y5263231D01*
X65416782Y5263230D01*
X65609621Y5145057D01*
X65830075Y5053743D01*
X65830072Y5053743D01*
X66062116Y4998034D01*
X66300000Y4979313D01*
X66537883Y4998034D01*
X66769925Y5053743D01*
X66990374Y5145056D01*
X67183216Y5263231D01*
X66509220Y5937228D01*
X66602588Y5975901D01*
X66727925Y6072075D01*
X66824099Y6197411D01*
X66862773Y6290780D01*
X67536769Y5616784D01*
X67654944Y5809626D01*
X67746257Y6030075D01*
X67801966Y6262117D01*
X67820687Y6500000D01*
X68278811Y6500000D01*
X68297538Y6262037D01*
X68353261Y6029932D01*
X68444608Y5809400D01*
X68444610Y5809396D01*
X68444611Y5809395D01*
X68569332Y5605868D01*
X68724357Y5424357D01*
X68905868Y5269332D01*
X69109395Y5144611D01*
X69109397Y5144611D01*
X69109399Y5144609D01*
X69152363Y5126813D01*
X69329927Y5053263D01*
X69562034Y4997539D01*
X69800000Y4978811D01*
X70037966Y4997539D01*
X70270073Y5053263D01*
X70490605Y5144611D01*
X70694132Y5269332D01*
X70875643Y5424357D01*
X71030668Y5605868D01*
X71155389Y5809395D01*
X71246737Y6029927D01*
X71302461Y6262034D01*
X71321189Y6500000D01*
X71302461Y6737966D01*
X71246737Y6970073D01*
X71155389Y7190605D01*
X71030668Y7394132D01*
X70875643Y7575643D01*
X70694132Y7730668D01*
X70490605Y7855389D01*
X70490604Y7855390D01*
X70490600Y7855392D01*
X70270068Y7946739D01*
X70037962Y8002462D01*
X70037963Y8002462D01*
X69800000Y8021189D01*
X69562036Y8002462D01*
X69329931Y7946739D01*
X69109399Y7855392D01*
X68905867Y7730668D01*
X68724357Y7575643D01*
X68569332Y7394133D01*
X68444608Y7190601D01*
X68353261Y6970069D01*
X68297538Y6737964D01*
X68278811Y6500000D01*
X67820687Y6500000D01*
X67801966Y6737884D01*
X67746257Y6969926D01*
X67654943Y7190379D01*
X67536769Y7383218D01*
X66862772Y6709221D01*
X66824099Y6802588D01*
X66727925Y6927925D01*
X66602588Y7024099D01*
X66509219Y7062774D01*
X67183216Y7736771D01*
X66990378Y7854944D01*
X66769924Y7946258D01*
X66769927Y7946258D01*
X66537883Y8001967D01*
X66300000Y8020688D01*
X66062116Y8001967D01*
X65830074Y7946258D01*
X65609621Y7854944D01*
X65416782Y7736771D01*
X66090780Y7062774D01*
X65997412Y7024099D01*
X65872075Y6927925D01*
X65775901Y6802589D01*
X65737226Y6709221D01*
X65063229Y7383218D01*
X64945056Y7190379D01*
X64853742Y6969926D01*
X64798033Y6737884D01*
X64779312Y6500000D01*
X64321189Y6500000D01*
X64302461Y6737966D01*
X64246737Y6970073D01*
X64155389Y7190605D01*
X64030668Y7394132D01*
X63875643Y7575643D01*
X63694132Y7730668D01*
X63490605Y7855389D01*
X63490604Y7855390D01*
X63490600Y7855392D01*
X63270068Y7946739D01*
X63037962Y8002462D01*
X63037963Y8002462D01*
X62800000Y8021189D01*
X62562036Y8002462D01*
X62329931Y7946739D01*
X62109399Y7855392D01*
X61905867Y7730668D01*
X61724357Y7575643D01*
X61569332Y7394133D01*
X61444608Y7190601D01*
X61353261Y6970069D01*
X61297538Y6737964D01*
X61278811Y6500000D01*
X59905177Y6500000D01*
X59884556Y6656631D01*
X59845882Y6750000D01*
X60816000Y6750000D01*
X60816000Y7563828D01*
X60815999Y7563845D01*
X60809598Y7623373D01*
X60809596Y7623380D01*
X60759354Y7758087D01*
X60759350Y7758094D01*
X60673190Y7873188D01*
X60673187Y7873191D01*
X60558093Y7959351D01*
X60558086Y7959355D01*
X60423379Y8009597D01*
X60423372Y8009599D01*
X60363844Y8016000D01*
X59550000Y8016000D01*
X59550000Y7045882D01*
X59456631Y7084556D01*
X59339323Y7100000D01*
X59260677Y7100000D01*
X59143369Y7084556D01*
X59050000Y7045882D01*
X59050000Y8016000D01*
X58236155Y8016000D01*
X58176627Y8009599D01*
X58176620Y8009597D01*
X58041913Y7959355D01*
X58041906Y7959351D01*
X57926812Y7873191D01*
X57926809Y7873188D01*
X57840649Y7758094D01*
X57840645Y7758087D01*
X57790403Y7623380D01*
X57790401Y7623373D01*
X57784000Y7563845D01*
X57784000Y6750000D01*
X58754118Y6750000D01*
X58715444Y6656631D01*
X58694823Y6500000D01*
X58715444Y6343369D01*
X58754118Y6250000D01*
X57784000Y6250000D01*
X57784000Y5436156D01*
X56885720Y5436156D01*
X57030668Y5605868D01*
X57155389Y5809395D01*
X57246737Y6029927D01*
X57302461Y6262034D01*
X57321189Y6500000D01*
X57302461Y6737966D01*
X57246737Y6970073D01*
X57155389Y7190605D01*
X57030668Y7394132D01*
X56875643Y7575643D01*
X56694132Y7730668D01*
X56490605Y7855389D01*
X56490604Y7855390D01*
X56490600Y7855392D01*
X56270068Y7946739D01*
X56037962Y8002462D01*
X56037963Y8002462D01*
X55800000Y8021189D01*
X55562036Y8002462D01*
X55329931Y7946739D01*
X55109399Y7855392D01*
X54905867Y7730668D01*
X54724357Y7575643D01*
X54569332Y7394133D01*
X54444608Y7190601D01*
X54353261Y6970069D01*
X54297538Y6737964D01*
X54278811Y6500000D01*
X53820687Y6500000D01*
X53801966Y6737884D01*
X53746257Y6969926D01*
X53654943Y7190379D01*
X53536769Y7383218D01*
X52862772Y6709222D01*
X52824099Y6802588D01*
X52727925Y6927925D01*
X52602588Y7024099D01*
X52509219Y7062774D01*
X53183216Y7736771D01*
X52990378Y7854944D01*
X52769924Y7946258D01*
X52769927Y7946258D01*
X52537883Y8001967D01*
X52299999Y8020688D01*
X52062116Y8001967D01*
X51830074Y7946258D01*
X51609621Y7854944D01*
X51416782Y7736771D01*
X52090780Y7062774D01*
X51997412Y7024099D01*
X51872075Y6927925D01*
X51775901Y6802589D01*
X51737226Y6709221D01*
X51063229Y7383218D01*
X50945056Y7190379D01*
X50853742Y6969926D01*
X50798033Y6737884D01*
X50779312Y6500001D01*
X50321189Y6500001D01*
X50302461Y6737966D01*
X50246737Y6970073D01*
X50155389Y7190605D01*
X50030668Y7394132D01*
X49875643Y7575643D01*
X49694132Y7730668D01*
X49490605Y7855389D01*
X49490604Y7855390D01*
X49490600Y7855392D01*
X49270068Y7946739D01*
X49037962Y8002462D01*
X49037963Y8002462D01*
X48800000Y8021189D01*
X48562036Y8002462D01*
X48329931Y7946739D01*
X48109399Y7855392D01*
X47905867Y7730668D01*
X47724357Y7575643D01*
X47569332Y7394133D01*
X47444608Y7190601D01*
X47353261Y6970069D01*
X47297538Y6737964D01*
X47278811Y6500000D01*
X45905177Y6500000D01*
X45884556Y6656631D01*
X45845882Y6750000D01*
X46816000Y6750000D01*
X46816000Y7563828D01*
X46815999Y7563845D01*
X46809598Y7623373D01*
X46809596Y7623380D01*
X46759354Y7758087D01*
X46759350Y7758094D01*
X46673190Y7873188D01*
X46673187Y7873191D01*
X46558093Y7959351D01*
X46558086Y7959355D01*
X46423379Y8009597D01*
X46423372Y8009599D01*
X46363844Y8016000D01*
X45550000Y8016000D01*
X45549999Y7045882D01*
X45456631Y7084556D01*
X45339323Y7100000D01*
X45260677Y7100000D01*
X45143369Y7084556D01*
X45050000Y7045882D01*
X45050000Y8016000D01*
X44236155Y8016000D01*
X44176627Y8009599D01*
X44176620Y8009597D01*
X44041913Y7959355D01*
X44041906Y7959351D01*
X43926812Y7873191D01*
X43926809Y7873188D01*
X43840649Y7758094D01*
X43840645Y7758087D01*
X43790403Y7623380D01*
X43790401Y7623373D01*
X43784000Y7563845D01*
X43784000Y6750000D01*
X44754118Y6750000D01*
X44715444Y6656631D01*
X44694823Y6500000D01*
X44715444Y6343369D01*
X44754118Y6250000D01*
X43784000Y6250000D01*
X43784000Y5436156D01*
X42885720Y5436156D01*
X43030668Y5605868D01*
X43155389Y5809395D01*
X43246737Y6029927D01*
X43302461Y6262034D01*
X43321189Y6500000D01*
X43302461Y6737966D01*
X43246737Y6970073D01*
X43155389Y7190605D01*
X43030668Y7394132D01*
X42875643Y7575643D01*
X42694132Y7730668D01*
X42490605Y7855389D01*
X42490604Y7855390D01*
X42490600Y7855392D01*
X42270068Y7946739D01*
X42037962Y8002462D01*
X42037963Y8002462D01*
X41800000Y8021189D01*
X41562036Y8002462D01*
X41329931Y7946739D01*
X41109399Y7855392D01*
X40905867Y7730668D01*
X40724357Y7575643D01*
X40569332Y7394133D01*
X40444608Y7190601D01*
X40353261Y6970069D01*
X40297538Y6737964D01*
X40278811Y6500000D01*
X39820687Y6500000D01*
X39801966Y6737884D01*
X39746257Y6969926D01*
X39654943Y7190379D01*
X39536769Y7383218D01*
X38862772Y6709221D01*
X38824099Y6802588D01*
X38727925Y6927925D01*
X38602588Y7024099D01*
X38509219Y7062774D01*
X39183216Y7736771D01*
X38990378Y7854944D01*
X38769924Y7946258D01*
X38769927Y7946258D01*
X38537883Y8001967D01*
X38300000Y8020688D01*
X38062116Y8001967D01*
X37830074Y7946258D01*
X37609621Y7854944D01*
X37416782Y7736771D01*
X38090780Y7062774D01*
X37997412Y7024099D01*
X37872075Y6927925D01*
X37775901Y6802589D01*
X37737226Y6709221D01*
X37063229Y7383218D01*
X36945056Y7190379D01*
X36853742Y6969926D01*
X36798033Y6737884D01*
X36779312Y6500000D01*
X36321189Y6500000D01*
X36302461Y6737966D01*
X36246737Y6970073D01*
X36155389Y7190605D01*
X36030668Y7394132D01*
X35875643Y7575643D01*
X35694132Y7730668D01*
X35490605Y7855389D01*
X35490604Y7855390D01*
X35490600Y7855392D01*
X35270068Y7946739D01*
X35037962Y8002462D01*
X35037963Y8002462D01*
X34800000Y8021189D01*
X34562036Y8002462D01*
X34329931Y7946739D01*
X34109399Y7855392D01*
X33905867Y7730668D01*
X33724357Y7575643D01*
X33569332Y7394133D01*
X33444608Y7190601D01*
X33353261Y6970069D01*
X33297538Y6737964D01*
X33278811Y6500000D01*
X31905177Y6500000D01*
X31884556Y6656631D01*
X31845882Y6750000D01*
X32816000Y6750000D01*
X32816000Y7563828D01*
X32815999Y7563845D01*
X32809598Y7623373D01*
X32809596Y7623380D01*
X32759354Y7758087D01*
X32759350Y7758094D01*
X32673190Y7873188D01*
X32673187Y7873191D01*
X32558093Y7959351D01*
X32558086Y7959355D01*
X32423379Y8009597D01*
X32423372Y8009599D01*
X32363844Y8016000D01*
X31550000Y8016000D01*
X31550000Y7045882D01*
X31456631Y7084556D01*
X31339323Y7100000D01*
X31260677Y7100000D01*
X31143369Y7084556D01*
X31049999Y7045882D01*
X31050000Y8016000D01*
X30236155Y8016000D01*
X30176627Y8009599D01*
X30176620Y8009597D01*
X30041913Y7959355D01*
X30041906Y7959351D01*
X29926812Y7873191D01*
X29926809Y7873188D01*
X29840649Y7758094D01*
X29840645Y7758087D01*
X29790403Y7623380D01*
X29790401Y7623373D01*
X29784000Y7563845D01*
X29784000Y6750000D01*
X30754118Y6750000D01*
X30715444Y6656631D01*
X30694823Y6500000D01*
X30715444Y6343369D01*
X30754118Y6250000D01*
X29784000Y6250000D01*
X29784000Y5436156D01*
X28885720Y5436156D01*
X29030668Y5605868D01*
X29155389Y5809395D01*
X29246737Y6029927D01*
X29302461Y6262034D01*
X29321189Y6500000D01*
X29302461Y6737966D01*
X29246737Y6970073D01*
X29155389Y7190605D01*
X29030668Y7394132D01*
X28875643Y7575643D01*
X28694132Y7730668D01*
X28490605Y7855389D01*
X28490604Y7855390D01*
X28490600Y7855392D01*
X28270068Y7946739D01*
X28037962Y8002462D01*
X28037963Y8002462D01*
X27800000Y8021189D01*
X27562036Y8002462D01*
X27329931Y7946739D01*
X27109399Y7855392D01*
X26905867Y7730668D01*
X26724357Y7575643D01*
X26569332Y7394133D01*
X26444608Y7190601D01*
X26353261Y6970069D01*
X26297538Y6737964D01*
X26278811Y6500000D01*
X25820687Y6500000D01*
X25801966Y6737884D01*
X25746257Y6969926D01*
X25654943Y7190379D01*
X25536769Y7383218D01*
X24862772Y6709222D01*
X24824099Y6802588D01*
X24727925Y6927925D01*
X24602588Y7024099D01*
X24509219Y7062774D01*
X25183216Y7736771D01*
X24990378Y7854944D01*
X24769924Y7946258D01*
X24769927Y7946258D01*
X24537883Y8001967D01*
X24299999Y8020688D01*
X24062116Y8001967D01*
X23830074Y7946258D01*
X23609621Y7854944D01*
X23416782Y7736771D01*
X24090780Y7062774D01*
X23997412Y7024099D01*
X23872075Y6927925D01*
X23775901Y6802589D01*
X23737226Y6709221D01*
X23063229Y7383218D01*
X22945056Y7190379D01*
X22853742Y6969926D01*
X22798033Y6737884D01*
X22779312Y6500001D01*
X22321189Y6500001D01*
X22302461Y6737966D01*
X22246737Y6970073D01*
X22155389Y7190605D01*
X22030668Y7394132D01*
X21875643Y7575643D01*
X21694132Y7730668D01*
X21490605Y7855389D01*
X21490604Y7855390D01*
X21490600Y7855392D01*
X21270068Y7946739D01*
X21037962Y8002462D01*
X21037963Y8002462D01*
X20800000Y8021189D01*
X20562036Y8002462D01*
X20329931Y7946739D01*
X20109399Y7855392D01*
X19905867Y7730668D01*
X19724357Y7575643D01*
X19569332Y7394133D01*
X19444608Y7190601D01*
X19353261Y6970069D01*
X19297538Y6737964D01*
X19278811Y6500000D01*
X17905177Y6500000D01*
X17884556Y6656631D01*
X17845882Y6750000D01*
X18816000Y6750000D01*
X18816000Y7563828D01*
X18815999Y7563845D01*
X18809598Y7623373D01*
X18809596Y7623380D01*
X18759354Y7758087D01*
X18759350Y7758094D01*
X18673190Y7873188D01*
X18673187Y7873191D01*
X18558093Y7959351D01*
X18558086Y7959355D01*
X18423379Y8009597D01*
X18423372Y8009599D01*
X18363844Y8016000D01*
X17550000Y8016000D01*
X17550000Y7045882D01*
X17456631Y7084556D01*
X17339323Y7100000D01*
X17260677Y7100000D01*
X17143369Y7084556D01*
X17050000Y7045882D01*
X17050000Y8016000D01*
X16236155Y8016000D01*
X16176627Y8009599D01*
X16176620Y8009597D01*
X16041913Y7959355D01*
X16041906Y7959351D01*
X15926812Y7873191D01*
X15926809Y7873188D01*
X15840649Y7758094D01*
X15840645Y7758087D01*
X15790403Y7623380D01*
X15790401Y7623373D01*
X15784000Y7563845D01*
X15784000Y6750000D01*
X16754118Y6750000D01*
X16715444Y6656631D01*
X16694823Y6500000D01*
X16715444Y6343369D01*
X16754118Y6250000D01*
X15784000Y6250000D01*
X15784000Y5436156D01*
X14510291Y5436156D01*
X14009220Y5937228D01*
X14102588Y5975901D01*
X14227925Y6072075D01*
X14324099Y6197411D01*
X14362773Y6290780D01*
X15036769Y5616784D01*
X15154944Y5809626D01*
X15246257Y6030075D01*
X15301966Y6262117D01*
X15320687Y6500000D01*
X15301966Y6737884D01*
X15246257Y6969926D01*
X15154943Y7190379D01*
X15036769Y7383218D01*
X14362772Y6709221D01*
X14324099Y6802588D01*
X14227925Y6927925D01*
X14102588Y7024099D01*
X14009218Y7062774D01*
X14683216Y7736771D01*
X14490378Y7854944D01*
X14269924Y7946258D01*
X14269927Y7946258D01*
X14037883Y8001967D01*
X13800000Y8020688D01*
X13562116Y8001967D01*
X13330074Y7946258D01*
X13109621Y7854944D01*
X12916782Y7736771D01*
X13590779Y7062773D01*
X13497412Y7024099D01*
X13372075Y6927925D01*
X13275901Y6802589D01*
X13237226Y6709221D01*
X12563229Y7383218D01*
X12445056Y7190379D01*
X12353742Y6969926D01*
X12298033Y6737884D01*
X12279312Y6500000D01*
X11820687Y6500000D01*
X11801966Y6737884D01*
X11746257Y6969926D01*
X11654943Y7190379D01*
X11536769Y7383218D01*
X10862772Y6709221D01*
X10824099Y6802588D01*
X10727925Y6927925D01*
X10602588Y7024099D01*
X10509219Y7062774D01*
X11183216Y7736771D01*
X10990378Y7854944D01*
X10769924Y7946258D01*
X10769927Y7946258D01*
X10537883Y8001967D01*
X10300000Y8020688D01*
X10062116Y8001967D01*
X9830074Y7946258D01*
X9609621Y7854944D01*
X9416782Y7736771D01*
X10090780Y7062774D01*
X9997412Y7024099D01*
X9872075Y6927925D01*
X9775901Y6802589D01*
X9737227Y6709221D01*
X9063229Y7383218D01*
X8945056Y7190379D01*
X8853742Y6969926D01*
X8798033Y6737884D01*
X8779312Y6500000D01*
X8320687Y6500000D01*
X8320687Y6500001D01*
X8301966Y6737884D01*
X8246257Y6969926D01*
X8154943Y7190379D01*
X8036769Y7383218D01*
X7362772Y6709221D01*
X7324099Y6802588D01*
X7227925Y6927925D01*
X7102588Y7024099D01*
X7009219Y7062774D01*
X7683216Y7736771D01*
X7490378Y7854944D01*
X7269924Y7946258D01*
X7269927Y7946258D01*
X7037883Y8001967D01*
X6800000Y8020688D01*
X6562116Y8001967D01*
X6330074Y7946258D01*
X6109621Y7854944D01*
X5916782Y7736771D01*
X6590780Y7062774D01*
X6497412Y7024099D01*
X6372075Y6927925D01*
X6275901Y6802589D01*
X6237227Y6709221D01*
X5563229Y7383218D01*
X5445056Y7190379D01*
X5353742Y6969926D01*
X5298033Y6737884D01*
X5279312Y6500001D01*
X3905177Y6500001D01*
X3884556Y6656631D01*
X3845882Y6750000D01*
X4816000Y6750000D01*
X4816000Y7563828D01*
X4815999Y7563845D01*
X4809598Y7623373D01*
X4809596Y7623380D01*
X4759354Y7758087D01*
X4759350Y7758094D01*
X4673190Y7873188D01*
X4673187Y7873191D01*
X4558093Y7959351D01*
X4558086Y7959355D01*
X4423379Y8009597D01*
X4423372Y8009599D01*
X4363844Y8016000D01*
X3550000Y8016000D01*
X3550000Y7045882D01*
X3456631Y7084556D01*
X3339323Y7100000D01*
X3260677Y7100000D01*
X3143369Y7084556D01*
X3050000Y7045882D01*
X3050000Y8016000D01*
X2236155Y8016000D01*
X2176627Y8009599D01*
X2176620Y8009597D01*
X2041913Y7959355D01*
X2041906Y7959351D01*
X1926812Y7873191D01*
X1926809Y7873188D01*
X1840649Y7758094D01*
X1840645Y7758087D01*
X1790403Y7623380D01*
X1790401Y7623373D01*
X1784000Y7563845D01*
X1784000Y7563828D01*
X1783999Y6750000D01*
X500Y6750000D01*
X500Y12750000D01*
X23144540Y12750000D01*
X23164326Y12561744D01*
X23164327Y12561741D01*
X23222818Y12381723D01*
X23222821Y12381716D01*
X23317467Y12217784D01*
X23401461Y12124500D01*
X23444129Y12077112D01*
X23597265Y11965852D01*
X23597270Y11965849D01*
X23770192Y11888858D01*
X23770195Y11888857D01*
X23770197Y11888856D01*
X23955354Y11849500D01*
X23955355Y11849500D01*
X24144644Y11849500D01*
X24144646Y11849500D01*
X24329803Y11888856D01*
X24358056Y11901437D01*
X24381607Y11909208D01*
X24389286Y11910915D01*
X24392400Y11911606D01*
X24934389Y12116490D01*
X24978234Y12124500D01*
X68371766Y12124500D01*
X68415610Y12116490D01*
X68957599Y11911606D01*
X68997986Y11898389D01*
X69003915Y11896106D01*
X69012073Y11892473D01*
X69020194Y11888857D01*
X69020197Y11888856D01*
X69205354Y11849500D01*
X69205355Y11849500D01*
X69394644Y11849500D01*
X69394646Y11849500D01*
X69579803Y11888856D01*
X69752730Y11965849D01*
X69905871Y12077112D01*
X70032533Y12217784D01*
X70127179Y12381716D01*
X70185674Y12561744D01*
X70205460Y12750000D01*
X70185674Y12938256D01*
X70127179Y13118284D01*
X70032533Y13282216D01*
X69905871Y13422888D01*
X69905870Y13422889D01*
X69752734Y13534149D01*
X69752729Y13534152D01*
X69579807Y13611143D01*
X69579802Y13611145D01*
X69434001Y13642135D01*
X69394646Y13650500D01*
X69205354Y13650500D01*
X69165998Y13642135D01*
X69020198Y13611145D01*
X69020193Y13611143D01*
X68991938Y13598563D01*
X68968400Y13590795D01*
X68957607Y13588398D01*
X68957593Y13588393D01*
X68415609Y13383511D01*
X68371763Y13375500D01*
X24978236Y13375500D01*
X24934391Y13383511D01*
X24728022Y13461523D01*
X24409437Y13581955D01*
X24392407Y13588392D01*
X24392398Y13588395D01*
X24392393Y13588397D01*
X24352016Y13601612D01*
X24346088Y13603894D01*
X24340567Y13606352D01*
X24329804Y13611144D01*
X24237224Y13630823D01*
X24144646Y13650500D01*
X23955354Y13650500D01*
X23922897Y13643602D01*
X23770197Y13611145D01*
X23770192Y13611143D01*
X23597270Y13534152D01*
X23597265Y13534149D01*
X23444129Y13422889D01*
X23317466Y13282215D01*
X23222821Y13118285D01*
X23222818Y13118278D01*
X23164327Y12938260D01*
X23164326Y12938256D01*
X23144540Y12750000D01*
X500Y12750000D01*
X500Y21250000D01*
X15394540Y21250000D01*
X15414326Y21061744D01*
X15414327Y21061741D01*
X15472818Y20881723D01*
X15472821Y20881716D01*
X15567467Y20717784D01*
X15694129Y20577112D01*
X15847265Y20465852D01*
X15847270Y20465849D01*
X16020192Y20388858D01*
X16020197Y20388856D01*
X16205354Y20349500D01*
X16205355Y20349500D01*
X16394644Y20349500D01*
X16394646Y20349500D01*
X16579803Y20388856D01*
X16752730Y20465849D01*
X16905871Y20577112D01*
X17032533Y20717784D01*
X17127179Y20881716D01*
X17127182Y20881728D01*
X17129819Y20887648D01*
X17129975Y20887579D01*
X17133236Y20895191D01*
X17133125Y20895241D01*
X17233796Y21118285D01*
X17373317Y21427403D01*
X17398650Y21464062D01*
X17522772Y21588183D01*
X17584095Y21621666D01*
X17610452Y21624500D01*
X18097153Y21624500D01*
X18164192Y21604815D01*
X18209947Y21552011D01*
X18219891Y21482853D01*
X18190866Y21419297D01*
X18189312Y21417539D01*
X18158674Y21383511D01*
X18067466Y21282215D01*
X17972821Y21118285D01*
X17972818Y21118278D01*
X17914327Y20938260D01*
X17914326Y20938256D01*
X17894540Y20750000D01*
X17914326Y20561744D01*
X17914327Y20561741D01*
X17972818Y20381723D01*
X17972821Y20381716D01*
X18067467Y20217784D01*
X18163487Y20111143D01*
X18194129Y20077112D01*
X18347265Y19965852D01*
X18347270Y19965849D01*
X18520192Y19888858D01*
X18520197Y19888856D01*
X18705354Y19849500D01*
X18705355Y19849500D01*
X18894644Y19849500D01*
X18894646Y19849500D01*
X19079803Y19888856D01*
X19108056Y19901437D01*
X19131607Y19909208D01*
X19139286Y19910915D01*
X19142400Y19911606D01*
X19684389Y20116490D01*
X19728234Y20124500D01*
X20597153Y20124500D01*
X20664192Y20104815D01*
X20709947Y20052011D01*
X20719891Y19982853D01*
X20690866Y19919297D01*
X20689312Y19917539D01*
X20651461Y19875500D01*
X20567466Y19782215D01*
X20472821Y19618285D01*
X20472818Y19618278D01*
X20414327Y19438260D01*
X20414326Y19438256D01*
X20394540Y19250000D01*
X20414326Y19061744D01*
X20414327Y19061741D01*
X20472818Y18881723D01*
X20472821Y18881716D01*
X20567467Y18717784D01*
X20651461Y18624500D01*
X20694129Y18577112D01*
X20847265Y18465852D01*
X20847270Y18465849D01*
X21020192Y18388858D01*
X21020195Y18388857D01*
X21020197Y18388856D01*
X21205354Y18349500D01*
X21205355Y18349500D01*
X21394644Y18349500D01*
X21394646Y18349500D01*
X21579803Y18388856D01*
X21608056Y18401437D01*
X21631607Y18409208D01*
X21639286Y18410915D01*
X21642400Y18411606D01*
X22184389Y18616490D01*
X22228234Y18624500D01*
X56121766Y18624500D01*
X56165610Y18616490D01*
X56707599Y18411606D01*
X56747986Y18398389D01*
X56753915Y18396106D01*
X56762073Y18392473D01*
X56770194Y18388857D01*
X56770197Y18388856D01*
X56955354Y18349500D01*
X56955355Y18349500D01*
X57144644Y18349500D01*
X57144646Y18349500D01*
X57329803Y18388856D01*
X57502730Y18465849D01*
X57655871Y18577112D01*
X57782533Y18717784D01*
X57877179Y18881716D01*
X57935674Y19061744D01*
X57955460Y19250000D01*
X57935674Y19438256D01*
X57877179Y19618284D01*
X57782533Y19782216D01*
X57655871Y19922888D01*
X57655870Y19922889D01*
X57502734Y20034149D01*
X57502729Y20034152D01*
X57329807Y20111143D01*
X57329802Y20111145D01*
X57184000Y20142135D01*
X57144646Y20150500D01*
X56955354Y20150500D01*
X56915999Y20142135D01*
X56770198Y20111145D01*
X56770193Y20111143D01*
X56741938Y20098563D01*
X56718400Y20090795D01*
X56707607Y20088398D01*
X56707593Y20088393D01*
X56364333Y19958634D01*
X56294664Y19953342D01*
X56233194Y19986555D01*
X56199438Y20047730D01*
X56204115Y20117443D01*
X56228335Y20157592D01*
X56282533Y20217784D01*
X56377179Y20381716D01*
X56435674Y20561744D01*
X56455460Y20750000D01*
X56435674Y20938256D01*
X56377179Y21118284D01*
X56282533Y21282216D01*
X56155871Y21422888D01*
X56155870Y21422889D01*
X56002734Y21534149D01*
X56002729Y21534152D01*
X55829807Y21611143D01*
X55829802Y21611145D01*
X55684000Y21642135D01*
X55644646Y21650500D01*
X55455354Y21650500D01*
X55415999Y21642135D01*
X55270198Y21611145D01*
X55270193Y21611143D01*
X55241938Y21598563D01*
X55218400Y21590795D01*
X55207607Y21588398D01*
X55207593Y21588393D01*
X54665609Y21383511D01*
X54621763Y21375500D01*
X43752847Y21375500D01*
X43685808Y21395185D01*
X43640053Y21447989D01*
X43630109Y21517147D01*
X43659134Y21580703D01*
X43660697Y21582472D01*
X43782533Y21717784D01*
X43877179Y21881716D01*
X43935674Y22061744D01*
X43955460Y22250000D01*
X43935674Y22438256D01*
X43877179Y22618284D01*
X43782533Y22782216D01*
X43655871Y22922888D01*
X43655870Y22922889D01*
X43502734Y23034149D01*
X43502729Y23034152D01*
X43329807Y23111143D01*
X43329802Y23111145D01*
X43244809Y23129210D01*
X43183327Y23162402D01*
X43149551Y23223565D01*
X43154203Y23293280D01*
X43195808Y23349412D01*
X43261155Y23374141D01*
X43270590Y23374500D01*
X69871766Y23374500D01*
X69915610Y23366490D01*
X70457599Y23161606D01*
X70497986Y23148389D01*
X70503915Y23146106D01*
X70512073Y23142473D01*
X70520194Y23138857D01*
X70520197Y23138856D01*
X70705354Y23099500D01*
X70705355Y23099500D01*
X70894644Y23099500D01*
X70894646Y23099500D01*
X71079803Y23138856D01*
X71252730Y23215849D01*
X71405871Y23327112D01*
X71532533Y23467784D01*
X71627179Y23631716D01*
X71685674Y23811744D01*
X71705460Y24000000D01*
X71685674Y24188256D01*
X71627179Y24368284D01*
X71532533Y24532216D01*
X71405871Y24672888D01*
X71405870Y24672889D01*
X71252734Y24784149D01*
X71252729Y24784152D01*
X71079807Y24861143D01*
X71079802Y24861145D01*
X70934000Y24892135D01*
X70894646Y24900500D01*
X70705354Y24900500D01*
X70665999Y24892135D01*
X70520198Y24861145D01*
X70520193Y24861143D01*
X70491938Y24848563D01*
X70468400Y24840795D01*
X70457607Y24838398D01*
X70457593Y24838393D01*
X69915609Y24633511D01*
X69871763Y24625500D01*
X37728236Y24625500D01*
X37684391Y24633511D01*
X37478022Y24711523D01*
X37159437Y24831955D01*
X37142407Y24838392D01*
X37142398Y24838395D01*
X37142393Y24838397D01*
X37102016Y24851612D01*
X37096088Y24853894D01*
X37090567Y24856352D01*
X37079804Y24861144D01*
X36987224Y24880822D01*
X36894646Y24900500D01*
X36705354Y24900500D01*
X36672897Y24893602D01*
X36520197Y24861145D01*
X36520192Y24861143D01*
X36347270Y24784152D01*
X36347265Y24784149D01*
X36194129Y24672889D01*
X36067466Y24532215D01*
X35972821Y24368285D01*
X35972818Y24368278D01*
X35914327Y24188260D01*
X35914326Y24188256D01*
X35894540Y24000000D01*
X35914326Y23811744D01*
X35914327Y23811741D01*
X35972818Y23631723D01*
X35972821Y23631716D01*
X36067467Y23467784D01*
X36151461Y23374500D01*
X36194129Y23327112D01*
X36347265Y23215852D01*
X36347270Y23215849D01*
X36520192Y23138858D01*
X36520197Y23138856D01*
X36605191Y23120790D01*
X36666673Y23087598D01*
X36700449Y23026435D01*
X36695797Y22956720D01*
X36654192Y22900588D01*
X36588845Y22875859D01*
X36579410Y22875500D01*
X17382743Y22875500D01*
X17367122Y22877225D01*
X17367095Y22876939D01*
X17359333Y22877674D01*
X17290172Y22875500D01*
X17260649Y22875500D01*
X17253778Y22874633D01*
X17247959Y22874175D01*
X17201374Y22872711D01*
X17201368Y22872710D01*
X17182126Y22867120D01*
X17163087Y22863177D01*
X17143217Y22860666D01*
X17143203Y22860663D01*
X17099883Y22843512D01*
X17094358Y22841620D01*
X17049613Y22828620D01*
X17049610Y22828619D01*
X17032366Y22818421D01*
X17014905Y22809867D01*
X16996274Y22802490D01*
X16996262Y22802483D01*
X16958570Y22775098D01*
X16953687Y22771891D01*
X16913580Y22748171D01*
X16899414Y22734005D01*
X16884624Y22721373D01*
X16868414Y22709596D01*
X16868411Y22709593D01*
X16838710Y22673691D01*
X16834777Y22669369D01*
X16514071Y22348663D01*
X16477403Y22323323D01*
X16314955Y22250000D01*
X15949277Y22084948D01*
X15949268Y22084944D01*
X15908536Y22064295D01*
X15903610Y22061184D01*
X15903294Y22061684D01*
X15886200Y22051485D01*
X15847271Y22034153D01*
X15847267Y22034151D01*
X15694129Y21922889D01*
X15567466Y21782215D01*
X15472821Y21618285D01*
X15472818Y21618278D01*
X15414327Y21438260D01*
X15414326Y21438256D01*
X15394540Y21250000D01*
X500Y21250000D01*
X500Y36500000D01*
X23894540Y36500000D01*
X23914326Y36311744D01*
X23914327Y36311741D01*
X23972818Y36131723D01*
X23972821Y36131716D01*
X24067467Y35967784D01*
X24151461Y35874500D01*
X24194129Y35827112D01*
X24347265Y35715852D01*
X24347270Y35715849D01*
X24520192Y35638858D01*
X24520195Y35638857D01*
X24520197Y35638856D01*
X24705354Y35599500D01*
X24705355Y35599500D01*
X24894644Y35599500D01*
X24894646Y35599500D01*
X25079803Y35638856D01*
X25108056Y35651437D01*
X25131607Y35659208D01*
X25139286Y35660915D01*
X25142400Y35661606D01*
X25684389Y35866490D01*
X25728234Y35874500D01*
X38121766Y35874500D01*
X38165610Y35866490D01*
X38707599Y35661606D01*
X38747986Y35648389D01*
X38753915Y35646106D01*
X38762073Y35642473D01*
X38770194Y35638857D01*
X38770197Y35638856D01*
X38955354Y35599500D01*
X38955355Y35599500D01*
X39144644Y35599500D01*
X39144646Y35599500D01*
X39329803Y35638856D01*
X39502730Y35715849D01*
X39655871Y35827112D01*
X39782533Y35967784D01*
X39877179Y36131716D01*
X39935674Y36311744D01*
X39955460Y36500000D01*
X39935674Y36688256D01*
X39877179Y36868284D01*
X39782533Y37032216D01*
X39655871Y37172888D01*
X39655870Y37172889D01*
X39502734Y37284149D01*
X39502729Y37284152D01*
X39329807Y37361143D01*
X39329802Y37361145D01*
X39184000Y37392135D01*
X39144646Y37400500D01*
X38955354Y37400500D01*
X38915998Y37392135D01*
X38770198Y37361145D01*
X38770193Y37361143D01*
X38741938Y37348563D01*
X38718400Y37340795D01*
X38707607Y37338398D01*
X38707593Y37338393D01*
X38165609Y37133511D01*
X38121763Y37125500D01*
X25728236Y37125500D01*
X25684391Y37133511D01*
X25478022Y37211523D01*
X25159437Y37331955D01*
X25142407Y37338392D01*
X25142398Y37338395D01*
X25142393Y37338397D01*
X25102016Y37351612D01*
X25096088Y37353894D01*
X25090567Y37356352D01*
X25079804Y37361144D01*
X24987224Y37380822D01*
X24894646Y37400500D01*
X24705354Y37400500D01*
X24672897Y37393602D01*
X24520197Y37361145D01*
X24520192Y37361143D01*
X24347270Y37284152D01*
X24347265Y37284149D01*
X24194129Y37172889D01*
X24067466Y37032215D01*
X23972821Y36868285D01*
X23972818Y36868278D01*
X23914327Y36688260D01*
X23914326Y36688256D01*
X23894540Y36500000D01*
X500Y36500000D01*
X500Y38500000D01*
X23394540Y38500000D01*
X23414326Y38311744D01*
X23414327Y38311741D01*
X23472818Y38131723D01*
X23472821Y38131716D01*
X23567467Y37967784D01*
X23651461Y37874500D01*
X23694129Y37827112D01*
X23847265Y37715852D01*
X23847270Y37715849D01*
X24020192Y37638858D01*
X24020195Y37638857D01*
X24020197Y37638856D01*
X24205354Y37599500D01*
X24205355Y37599500D01*
X24394644Y37599500D01*
X24394646Y37599500D01*
X24579803Y37638856D01*
X24608056Y37651437D01*
X24631607Y37659208D01*
X24639286Y37660915D01*
X24642400Y37661606D01*
X25184389Y37866490D01*
X25228234Y37874500D01*
X31121766Y37874500D01*
X31165610Y37866490D01*
X31707599Y37661606D01*
X31747986Y37648389D01*
X31753915Y37646106D01*
X31762073Y37642473D01*
X31770194Y37638857D01*
X31770197Y37638856D01*
X31955354Y37599500D01*
X31955355Y37599500D01*
X32144644Y37599500D01*
X32144646Y37599500D01*
X32329803Y37638856D01*
X32502730Y37715849D01*
X32655871Y37827112D01*
X32782533Y37967784D01*
X32877179Y38131716D01*
X32935674Y38311744D01*
X32955460Y38500000D01*
X32935674Y38688256D01*
X32877179Y38868284D01*
X32782533Y39032216D01*
X32655871Y39172888D01*
X32655870Y39172889D01*
X32502734Y39284149D01*
X32502729Y39284152D01*
X32329807Y39361143D01*
X32329802Y39361145D01*
X32184000Y39392135D01*
X32144646Y39400500D01*
X31955354Y39400500D01*
X31915999Y39392135D01*
X31770198Y39361145D01*
X31770193Y39361143D01*
X31741938Y39348563D01*
X31718400Y39340795D01*
X31707607Y39338398D01*
X31707593Y39338393D01*
X31165609Y39133511D01*
X31121763Y39125500D01*
X25228236Y39125500D01*
X25184391Y39133511D01*
X24978022Y39211523D01*
X24659437Y39331955D01*
X24642407Y39338392D01*
X24642398Y39338395D01*
X24642393Y39338397D01*
X24602016Y39351612D01*
X24596088Y39353894D01*
X24590567Y39356352D01*
X24579804Y39361144D01*
X24487224Y39380822D01*
X24394646Y39400500D01*
X24205354Y39400500D01*
X24172897Y39393602D01*
X24020197Y39361145D01*
X24020192Y39361143D01*
X23847270Y39284152D01*
X23847265Y39284149D01*
X23694129Y39172889D01*
X23567466Y39032215D01*
X23472821Y38868285D01*
X23472818Y38868278D01*
X23414327Y38688260D01*
X23414326Y38688256D01*
X23394540Y38500000D01*
X500Y38500000D01*
X500Y43500000D01*
X2279312Y43500000D01*
X2298033Y43262117D01*
X2353742Y43030075D01*
X2445056Y42809622D01*
X2563229Y42616784D01*
X3237226Y43290781D01*
X3275901Y43197412D01*
X3372075Y43072075D01*
X3497412Y42975901D01*
X3590779Y42937228D01*
X2916782Y42263231D01*
X2916782Y42263230D01*
X3109621Y42145057D01*
X3330075Y42053743D01*
X3330072Y42053743D01*
X3562116Y41998034D01*
X3800000Y41979313D01*
X4037883Y41998034D01*
X4269925Y42053743D01*
X4490374Y42145056D01*
X4683216Y42263231D01*
X4009220Y42937228D01*
X4102588Y42975901D01*
X4227925Y43072075D01*
X4324099Y43197411D01*
X4362773Y43290780D01*
X5036769Y42616784D01*
X5154944Y42809626D01*
X5246257Y43030075D01*
X5301966Y43262117D01*
X5320687Y43500000D01*
X5778811Y43500000D01*
X5797538Y43262037D01*
X5853261Y43029932D01*
X5944608Y42809400D01*
X5944610Y42809396D01*
X5944611Y42809395D01*
X6069332Y42605868D01*
X6224357Y42424357D01*
X6405868Y42269332D01*
X6609395Y42144611D01*
X6609397Y42144611D01*
X6609399Y42144609D01*
X6653232Y42126453D01*
X6829927Y42053263D01*
X7062034Y41997539D01*
X7300000Y41978811D01*
X7537966Y41997539D01*
X7770073Y42053263D01*
X7990605Y42144611D01*
X8194132Y42269332D01*
X8375643Y42424357D01*
X8530668Y42605868D01*
X8655389Y42809395D01*
X8746737Y43029927D01*
X8802461Y43262034D01*
X8821189Y43500000D01*
X8821189Y43500001D01*
X9279312Y43500001D01*
X9298033Y43262117D01*
X9353742Y43030075D01*
X9445056Y42809622D01*
X9563229Y42616784D01*
X10237226Y43290781D01*
X10275901Y43197412D01*
X10372075Y43072075D01*
X10497412Y42975901D01*
X10590779Y42937228D01*
X9916782Y42263231D01*
X9916782Y42263230D01*
X10109621Y42145057D01*
X10330075Y42053743D01*
X10330072Y42053743D01*
X10562116Y41998034D01*
X10800000Y41979313D01*
X11037883Y41998034D01*
X11269925Y42053743D01*
X11490374Y42145056D01*
X11683216Y42263231D01*
X11510317Y42436130D01*
X12783500Y42436130D01*
X12783501Y42436124D01*
X12789908Y42376517D01*
X12840202Y42241672D01*
X12840206Y42241665D01*
X12926452Y42126456D01*
X12926455Y42126453D01*
X13041664Y42040207D01*
X13041671Y42040203D01*
X13176517Y41989909D01*
X13176516Y41989909D01*
X13183444Y41989165D01*
X13236127Y41983500D01*
X15363872Y41983501D01*
X15423483Y41989909D01*
X15558331Y42040204D01*
X15673546Y42126454D01*
X15759796Y42241669D01*
X15810091Y42376517D01*
X15816500Y42436127D01*
X15816499Y43500001D01*
X16279312Y43500001D01*
X16298033Y43262117D01*
X16353742Y43030075D01*
X16445056Y42809622D01*
X16563229Y42616784D01*
X17237226Y43290781D01*
X17275901Y43197412D01*
X17372075Y43072075D01*
X17497412Y42975901D01*
X17590779Y42937228D01*
X16916782Y42263231D01*
X16916782Y42263230D01*
X17109621Y42145057D01*
X17330075Y42053743D01*
X17330072Y42053743D01*
X17562116Y41998034D01*
X17800000Y41979313D01*
X18037883Y41998034D01*
X18269925Y42053743D01*
X18490374Y42145056D01*
X18683216Y42263231D01*
X18009220Y42937228D01*
X18102588Y42975901D01*
X18227925Y43072075D01*
X18324099Y43197411D01*
X18362773Y43290780D01*
X19036769Y42616784D01*
X19154944Y42809626D01*
X19246257Y43030075D01*
X19301966Y43262117D01*
X19320687Y43500000D01*
X19778811Y43500000D01*
X19797538Y43262037D01*
X19853261Y43029932D01*
X19944608Y42809400D01*
X19944610Y42809396D01*
X19944611Y42809395D01*
X20069332Y42605868D01*
X20224357Y42424357D01*
X20405868Y42269332D01*
X20609395Y42144611D01*
X20609397Y42144611D01*
X20609399Y42144609D01*
X20653232Y42126453D01*
X20829927Y42053263D01*
X21062034Y41997539D01*
X21300000Y41978811D01*
X21537966Y41997539D01*
X21770073Y42053263D01*
X21990605Y42144611D01*
X22194132Y42269332D01*
X22375643Y42424357D01*
X22530668Y42605868D01*
X22655389Y42809395D01*
X22746737Y43029927D01*
X22802461Y43262034D01*
X22821189Y43500000D01*
X22821189Y43500001D01*
X23279312Y43500001D01*
X23298033Y43262117D01*
X23353742Y43030075D01*
X23445056Y42809622D01*
X23563229Y42616784D01*
X24237226Y43290781D01*
X24275901Y43197412D01*
X24372075Y43072075D01*
X24497412Y42975901D01*
X24590779Y42937228D01*
X23916782Y42263231D01*
X23916782Y42263230D01*
X24109621Y42145057D01*
X24330075Y42053743D01*
X24330072Y42053743D01*
X24562116Y41998034D01*
X24799999Y41979313D01*
X25037883Y41998034D01*
X25269925Y42053743D01*
X25490374Y42145056D01*
X25683216Y42263231D01*
X25510317Y42436130D01*
X26783500Y42436130D01*
X26783501Y42436124D01*
X26789908Y42376517D01*
X26840202Y42241672D01*
X26840206Y42241665D01*
X26926452Y42126456D01*
X26926455Y42126453D01*
X27041664Y42040207D01*
X27041671Y42040203D01*
X27176517Y41989909D01*
X27176516Y41989909D01*
X27183444Y41989165D01*
X27236127Y41983500D01*
X29363872Y41983501D01*
X29423483Y41989909D01*
X29558331Y42040204D01*
X29673546Y42126454D01*
X29759796Y42241669D01*
X29810091Y42376517D01*
X29816500Y42436127D01*
X29816499Y43500000D01*
X30279312Y43500000D01*
X30298033Y43262117D01*
X30353742Y43030075D01*
X30445056Y42809622D01*
X30563229Y42616784D01*
X31237226Y43290781D01*
X31275901Y43197412D01*
X31372075Y43072075D01*
X31497412Y42975901D01*
X31590779Y42937228D01*
X30916782Y42263231D01*
X30916782Y42263230D01*
X31109621Y42145057D01*
X31330075Y42053743D01*
X31330072Y42053743D01*
X31562116Y41998034D01*
X31800000Y41979313D01*
X32037883Y41998034D01*
X32269925Y42053743D01*
X32490374Y42145056D01*
X32683216Y42263231D01*
X32009220Y42937228D01*
X32102588Y42975901D01*
X32227925Y43072075D01*
X32324099Y43197411D01*
X32362773Y43290780D01*
X33036769Y42616784D01*
X33154944Y42809626D01*
X33246257Y43030075D01*
X33301966Y43262117D01*
X33320687Y43500000D01*
X33778811Y43500000D01*
X33797538Y43262037D01*
X33853261Y43029932D01*
X33944608Y42809400D01*
X33944610Y42809396D01*
X33944611Y42809395D01*
X34069332Y42605868D01*
X34224357Y42424357D01*
X34405868Y42269332D01*
X34609395Y42144611D01*
X34609397Y42144611D01*
X34609399Y42144609D01*
X34653232Y42126453D01*
X34829927Y42053263D01*
X35062034Y41997539D01*
X35300000Y41978811D01*
X35537966Y41997539D01*
X35770073Y42053263D01*
X35990605Y42144611D01*
X36194132Y42269332D01*
X36375643Y42424357D01*
X36530668Y42605868D01*
X36655389Y42809395D01*
X36746737Y43029927D01*
X36802461Y43262034D01*
X36821189Y43500000D01*
X36821189Y43500001D01*
X37279312Y43500001D01*
X37298033Y43262117D01*
X37353742Y43030075D01*
X37445056Y42809622D01*
X37563229Y42616784D01*
X38237226Y43290781D01*
X38275901Y43197412D01*
X38372075Y43072075D01*
X38497412Y42975901D01*
X38590779Y42937228D01*
X37916782Y42263231D01*
X37916782Y42263230D01*
X38109621Y42145057D01*
X38330075Y42053743D01*
X38330072Y42053743D01*
X38562116Y41998034D01*
X38800000Y41979313D01*
X39037883Y41998034D01*
X39269925Y42053743D01*
X39490374Y42145056D01*
X39683216Y42263231D01*
X39510317Y42436130D01*
X40783500Y42436130D01*
X40783501Y42436124D01*
X40789908Y42376517D01*
X40840202Y42241672D01*
X40840206Y42241665D01*
X40926452Y42126456D01*
X40926455Y42126453D01*
X41041664Y42040207D01*
X41041671Y42040203D01*
X41176517Y41989909D01*
X41176516Y41989909D01*
X41183444Y41989165D01*
X41236127Y41983500D01*
X43363872Y41983501D01*
X43423483Y41989909D01*
X43558331Y42040204D01*
X43673546Y42126454D01*
X43759796Y42241669D01*
X43810091Y42376517D01*
X43816500Y42436127D01*
X43816499Y43500000D01*
X44278811Y43500000D01*
X44297538Y43262037D01*
X44353261Y43029932D01*
X44444608Y42809400D01*
X44444610Y42809396D01*
X44444611Y42809395D01*
X44569332Y42605868D01*
X44724357Y42424357D01*
X44905868Y42269332D01*
X45109395Y42144611D01*
X45109397Y42144611D01*
X45109399Y42144609D01*
X45153232Y42126453D01*
X45329927Y42053263D01*
X45562034Y41997539D01*
X45800000Y41978811D01*
X46037966Y41997539D01*
X46270073Y42053263D01*
X46490605Y42144611D01*
X46694132Y42269332D01*
X46875643Y42424357D01*
X47030668Y42605868D01*
X47155389Y42809395D01*
X47246737Y43029927D01*
X47302461Y43262034D01*
X47321189Y43500000D01*
X47302461Y43737966D01*
X47246737Y43970073D01*
X47155389Y44190605D01*
X47030668Y44394132D01*
X46875643Y44575643D01*
X46694132Y44730668D01*
X46490605Y44855389D01*
X46490604Y44855390D01*
X46490600Y44855392D01*
X46270068Y44946739D01*
X46037962Y45002462D01*
X46037963Y45002462D01*
X45800000Y45021189D01*
X45562036Y45002462D01*
X45329931Y44946739D01*
X45109399Y44855392D01*
X44905867Y44730668D01*
X44724357Y44575643D01*
X44569332Y44394133D01*
X44444608Y44190601D01*
X44353261Y43970069D01*
X44297538Y43737964D01*
X44278811Y43500000D01*
X43816499Y43500000D01*
X43816499Y44563872D01*
X43810091Y44623483D01*
X43767837Y44736771D01*
X43759797Y44758329D01*
X43759793Y44758336D01*
X43673547Y44873545D01*
X43673544Y44873548D01*
X43558335Y44959794D01*
X43558328Y44959798D01*
X43423482Y45010092D01*
X43423483Y45010092D01*
X43363883Y45016499D01*
X43363881Y45016500D01*
X43363873Y45016500D01*
X43363864Y45016500D01*
X41236129Y45016500D01*
X41236123Y45016499D01*
X41176516Y45010092D01*
X41041671Y44959798D01*
X41041664Y44959794D01*
X40926455Y44873548D01*
X40926452Y44873545D01*
X40840206Y44758336D01*
X40840202Y44758329D01*
X40789908Y44623483D01*
X40784765Y44575643D01*
X40783501Y44563877D01*
X40783500Y44563865D01*
X40783500Y42436130D01*
X39510317Y42436130D01*
X39009220Y42937228D01*
X39102588Y42975901D01*
X39227925Y43072075D01*
X39324099Y43197411D01*
X39362772Y43290780D01*
X40036769Y42616784D01*
X40154944Y42809626D01*
X40246257Y43030075D01*
X40301966Y43262117D01*
X40320687Y43500001D01*
X40301966Y43737884D01*
X40246257Y43969926D01*
X40154943Y44190379D01*
X40036769Y44383218D01*
X39362772Y43709222D01*
X39324099Y43802588D01*
X39227925Y43927925D01*
X39102588Y44024099D01*
X39009218Y44062774D01*
X39683216Y44736771D01*
X39490378Y44854944D01*
X39269924Y44946258D01*
X39269927Y44946258D01*
X39037883Y45001967D01*
X38800000Y45020688D01*
X38562116Y45001967D01*
X38330074Y44946258D01*
X38109621Y44854944D01*
X37916782Y44736771D01*
X38590779Y44062773D01*
X38497412Y44024099D01*
X38372075Y43927925D01*
X38275901Y43802589D01*
X38237226Y43709221D01*
X37563229Y44383218D01*
X37445056Y44190379D01*
X37353742Y43969926D01*
X37298033Y43737884D01*
X37279312Y43500001D01*
X36821189Y43500001D01*
X36802461Y43737966D01*
X36746737Y43970073D01*
X36655389Y44190605D01*
X36530668Y44394132D01*
X36375643Y44575643D01*
X36194132Y44730668D01*
X35990605Y44855389D01*
X35990604Y44855390D01*
X35990600Y44855392D01*
X35770068Y44946739D01*
X35537962Y45002462D01*
X35537963Y45002462D01*
X35300000Y45021189D01*
X35062036Y45002462D01*
X34829931Y44946739D01*
X34609399Y44855392D01*
X34405867Y44730668D01*
X34224357Y44575643D01*
X34069332Y44394133D01*
X33944608Y44190601D01*
X33853261Y43970069D01*
X33797538Y43737964D01*
X33778811Y43500000D01*
X33320687Y43500000D01*
X33301966Y43737884D01*
X33246257Y43969926D01*
X33154943Y44190379D01*
X33036769Y44383218D01*
X32362772Y43709221D01*
X32324099Y43802588D01*
X32227925Y43927925D01*
X32102588Y44024099D01*
X32009219Y44062774D01*
X32683216Y44736771D01*
X32490378Y44854944D01*
X32269924Y44946258D01*
X32269927Y44946258D01*
X32037883Y45001967D01*
X31799999Y45020688D01*
X31562116Y45001967D01*
X31330074Y44946258D01*
X31109621Y44854944D01*
X30916782Y44736771D01*
X31590780Y44062774D01*
X31497412Y44024099D01*
X31372075Y43927925D01*
X31275901Y43802589D01*
X31237226Y43709221D01*
X30563229Y44383218D01*
X30445056Y44190379D01*
X30353742Y43969926D01*
X30298033Y43737884D01*
X30279312Y43500000D01*
X29816499Y43500000D01*
X29816499Y44563872D01*
X29810091Y44623483D01*
X29767837Y44736771D01*
X29759797Y44758329D01*
X29759793Y44758336D01*
X29673547Y44873545D01*
X29673544Y44873548D01*
X29558335Y44959794D01*
X29558328Y44959798D01*
X29423482Y45010092D01*
X29423483Y45010092D01*
X29363883Y45016499D01*
X29363881Y45016500D01*
X29363873Y45016500D01*
X29363864Y45016500D01*
X27236129Y45016500D01*
X27236123Y45016499D01*
X27176516Y45010092D01*
X27041671Y44959798D01*
X27041664Y44959794D01*
X26926455Y44873548D01*
X26926452Y44873545D01*
X26840206Y44758336D01*
X26840202Y44758329D01*
X26789908Y44623483D01*
X26784765Y44575643D01*
X26783501Y44563877D01*
X26783500Y44563865D01*
X26783500Y42436130D01*
X25510317Y42436130D01*
X25009220Y42937228D01*
X25102588Y42975901D01*
X25227925Y43072075D01*
X25324099Y43197411D01*
X25362773Y43290781D01*
X26036769Y42616784D01*
X26154944Y42809626D01*
X26246257Y43030075D01*
X26301966Y43262117D01*
X26320687Y43500001D01*
X26301966Y43737884D01*
X26246257Y43969926D01*
X26154943Y44190379D01*
X26036769Y44383218D01*
X25362772Y43709221D01*
X25324099Y43802588D01*
X25227925Y43927925D01*
X25102588Y44024099D01*
X25009219Y44062774D01*
X25683216Y44736771D01*
X25490378Y44854944D01*
X25269924Y44946258D01*
X25269927Y44946258D01*
X25037883Y45001967D01*
X24800000Y45020688D01*
X24562116Y45001967D01*
X24330074Y44946258D01*
X24109621Y44854944D01*
X23916782Y44736771D01*
X24590780Y44062774D01*
X24497412Y44024099D01*
X24372075Y43927925D01*
X24275901Y43802589D01*
X24237226Y43709221D01*
X23563229Y44383218D01*
X23445056Y44190379D01*
X23353742Y43969926D01*
X23298033Y43737884D01*
X23279312Y43500001D01*
X22821189Y43500001D01*
X22802461Y43737966D01*
X22746737Y43970073D01*
X22655389Y44190605D01*
X22530668Y44394132D01*
X22375643Y44575643D01*
X22194132Y44730668D01*
X21990605Y44855389D01*
X21990604Y44855390D01*
X21990600Y44855392D01*
X21770068Y44946739D01*
X21537962Y45002462D01*
X21537963Y45002462D01*
X21300000Y45021189D01*
X21062036Y45002462D01*
X20829931Y44946739D01*
X20609399Y44855392D01*
X20405867Y44730668D01*
X20224357Y44575643D01*
X20069332Y44394133D01*
X19944608Y44190601D01*
X19853261Y43970069D01*
X19797538Y43737964D01*
X19778811Y43500000D01*
X19320687Y43500000D01*
X19320687Y43500001D01*
X19301966Y43737884D01*
X19246257Y43969926D01*
X19154943Y44190379D01*
X19036769Y44383218D01*
X18362772Y43709221D01*
X18324099Y43802588D01*
X18227925Y43927925D01*
X18102588Y44024099D01*
X18009219Y44062774D01*
X18683216Y44736771D01*
X18490378Y44854944D01*
X18269924Y44946258D01*
X18269927Y44946258D01*
X18037883Y45001967D01*
X17800000Y45020688D01*
X17562116Y45001967D01*
X17330074Y44946258D01*
X17109621Y44854944D01*
X16916782Y44736771D01*
X17590780Y44062774D01*
X17497412Y44024099D01*
X17372075Y43927925D01*
X17275901Y43802589D01*
X17237226Y43709221D01*
X16563229Y44383218D01*
X16445056Y44190379D01*
X16353742Y43969926D01*
X16298033Y43737884D01*
X16279312Y43500001D01*
X15816499Y43500001D01*
X15816499Y44563872D01*
X15810091Y44623483D01*
X15767837Y44736771D01*
X15759797Y44758329D01*
X15759793Y44758336D01*
X15673547Y44873545D01*
X15673544Y44873548D01*
X15558335Y44959794D01*
X15558328Y44959798D01*
X15423482Y45010092D01*
X15423483Y45010092D01*
X15363883Y45016499D01*
X15363881Y45016500D01*
X15363873Y45016500D01*
X15363864Y45016500D01*
X13236129Y45016500D01*
X13236123Y45016499D01*
X13176516Y45010092D01*
X13041671Y44959798D01*
X13041664Y44959794D01*
X12926455Y44873548D01*
X12926452Y44873545D01*
X12840206Y44758336D01*
X12840202Y44758329D01*
X12789908Y44623483D01*
X12784765Y44575643D01*
X12783501Y44563877D01*
X12783500Y44563865D01*
X12783500Y42436130D01*
X11510317Y42436130D01*
X11009220Y42937228D01*
X11102588Y42975901D01*
X11227925Y43072075D01*
X11324099Y43197411D01*
X11362773Y43290780D01*
X12036769Y42616784D01*
X12154944Y42809626D01*
X12246257Y43030075D01*
X12301966Y43262117D01*
X12320687Y43500001D01*
X12301966Y43737884D01*
X12246257Y43969926D01*
X12154943Y44190379D01*
X12036769Y44383218D01*
X11362772Y43709221D01*
X11324099Y43802588D01*
X11227925Y43927925D01*
X11102588Y44024099D01*
X11009219Y44062774D01*
X11683216Y44736771D01*
X11490378Y44854944D01*
X11269924Y44946258D01*
X11269927Y44946258D01*
X11037883Y45001967D01*
X10800000Y45020688D01*
X10562116Y45001967D01*
X10330074Y44946258D01*
X10109621Y44854944D01*
X9916782Y44736771D01*
X10590780Y44062774D01*
X10497412Y44024099D01*
X10372075Y43927925D01*
X10275901Y43802589D01*
X10237226Y43709221D01*
X9563229Y44383218D01*
X9445056Y44190379D01*
X9353742Y43969926D01*
X9298033Y43737884D01*
X9279312Y43500001D01*
X8821189Y43500001D01*
X8802461Y43737966D01*
X8746737Y43970073D01*
X8731285Y44007376D01*
X8726368Y44023876D01*
X8725854Y44023739D01*
X8705670Y44100000D01*
X8312626Y45585063D01*
X8308500Y45616785D01*
X8308500Y46280905D01*
X8328185Y46347944D01*
X8344819Y46368586D01*
X9181415Y47205181D01*
X9242738Y47238666D01*
X9269096Y47241500D01*
X48167500Y47241500D01*
X48234539Y47221815D01*
X48280294Y47169011D01*
X48291500Y47117500D01*
X48291500Y45616789D01*
X48287373Y45585063D01*
X47875278Y44028019D01*
X47874702Y44025656D01*
X47868787Y44007554D01*
X47853262Y43970073D01*
X47797538Y43737964D01*
X47778811Y43500000D01*
X47797538Y43262037D01*
X47853261Y43029932D01*
X47944608Y42809400D01*
X47944610Y42809396D01*
X47944611Y42809395D01*
X48069332Y42605868D01*
X48224357Y42424357D01*
X48405868Y42269332D01*
X48609395Y42144611D01*
X48609397Y42144611D01*
X48609399Y42144609D01*
X48653232Y42126453D01*
X48829927Y42053263D01*
X49062034Y41997539D01*
X49300000Y41978811D01*
X49537966Y41997539D01*
X49770073Y42053263D01*
X49990605Y42144611D01*
X50194132Y42269332D01*
X50375643Y42424357D01*
X50530668Y42605868D01*
X50655389Y42809395D01*
X50746737Y43029927D01*
X50802461Y43262034D01*
X50821189Y43500000D01*
X51278811Y43500000D01*
X51297538Y43262037D01*
X51353261Y43029932D01*
X51444608Y42809400D01*
X51444610Y42809396D01*
X51444611Y42809395D01*
X51569332Y42605868D01*
X51724357Y42424357D01*
X51905868Y42269332D01*
X52109395Y42144611D01*
X52109397Y42144611D01*
X52109399Y42144609D01*
X52153232Y42126453D01*
X52329927Y42053263D01*
X52562034Y41997539D01*
X52800000Y41978811D01*
X53037966Y41997539D01*
X53270073Y42053263D01*
X53490605Y42144611D01*
X53694132Y42269332D01*
X53875643Y42424357D01*
X54030668Y42605868D01*
X54155389Y42809395D01*
X54246737Y43029927D01*
X54302461Y43262034D01*
X54321189Y43500000D01*
X54302461Y43737966D01*
X54246737Y43970073D01*
X54155389Y44190605D01*
X54030668Y44394132D01*
X53875643Y44575643D01*
X53694132Y44730668D01*
X53490605Y44855389D01*
X53490604Y44855390D01*
X53490600Y44855392D01*
X53270068Y44946739D01*
X53037962Y45002462D01*
X53037963Y45002462D01*
X52800000Y45021189D01*
X52562036Y45002462D01*
X52329931Y44946739D01*
X52109399Y44855392D01*
X51905867Y44730668D01*
X51724357Y44575643D01*
X51569332Y44394133D01*
X51444608Y44190601D01*
X51353261Y43970069D01*
X51297538Y43737964D01*
X51278811Y43500000D01*
X50821189Y43500000D01*
X50802461Y43737966D01*
X50746737Y43970073D01*
X50731285Y44007376D01*
X50726368Y44023876D01*
X50725854Y44023739D01*
X50705670Y44100000D01*
X50312626Y45585063D01*
X50308500Y45616785D01*
X50308500Y47117500D01*
X50328185Y47184539D01*
X50380989Y47230294D01*
X50432500Y47241500D01*
X55167500Y47241500D01*
X55234539Y47221815D01*
X55280294Y47169011D01*
X55291500Y47117500D01*
X55291500Y45672638D01*
X55278763Y45617898D01*
X55270279Y45600652D01*
X54890956Y44829675D01*
X54878963Y44810110D01*
X54840205Y44758333D01*
X54840202Y44758328D01*
X54789908Y44623483D01*
X54784765Y44575643D01*
X54783501Y44563877D01*
X54783500Y44563865D01*
X54783500Y42436130D01*
X54783501Y42436124D01*
X54789908Y42376517D01*
X54840202Y42241672D01*
X54840206Y42241665D01*
X54926452Y42126456D01*
X54926455Y42126453D01*
X55041664Y42040207D01*
X55041671Y42040203D01*
X55176517Y41989909D01*
X55176516Y41989909D01*
X55183444Y41989165D01*
X55236127Y41983500D01*
X57363872Y41983501D01*
X57423483Y41989909D01*
X57558331Y42040204D01*
X57673546Y42126454D01*
X57759796Y42241669D01*
X57810091Y42376517D01*
X57816500Y42436127D01*
X57816499Y43500000D01*
X58278811Y43500000D01*
X58297538Y43262037D01*
X58353261Y43029932D01*
X58444608Y42809400D01*
X58444610Y42809396D01*
X58444611Y42809395D01*
X58569332Y42605868D01*
X58724357Y42424357D01*
X58905868Y42269332D01*
X59109395Y42144611D01*
X59109397Y42144611D01*
X59109399Y42144609D01*
X59153232Y42126453D01*
X59329927Y42053263D01*
X59562034Y41997539D01*
X59800000Y41978811D01*
X60037966Y41997539D01*
X60270073Y42053263D01*
X60490605Y42144611D01*
X60694132Y42269332D01*
X60875643Y42424357D01*
X61030668Y42605868D01*
X61155389Y42809395D01*
X61246737Y43029927D01*
X61302461Y43262034D01*
X61321189Y43500000D01*
X61302461Y43737966D01*
X61246737Y43970073D01*
X61155389Y44190605D01*
X61030668Y44394132D01*
X60875643Y44575643D01*
X60694132Y44730668D01*
X60490605Y44855389D01*
X60490604Y44855390D01*
X60490600Y44855392D01*
X60270068Y44946739D01*
X60037962Y45002462D01*
X60037963Y45002462D01*
X59800000Y45021189D01*
X59562036Y45002462D01*
X59329931Y44946739D01*
X59109399Y44855392D01*
X58905867Y44730668D01*
X58724357Y44575643D01*
X58569332Y44394133D01*
X58444608Y44190601D01*
X58353261Y43970069D01*
X58297538Y43737964D01*
X58278811Y43500000D01*
X57816499Y43500000D01*
X57816499Y44563872D01*
X57810091Y44623483D01*
X57767837Y44736771D01*
X57759797Y44758329D01*
X57759795Y44758332D01*
X57759794Y44758333D01*
X57721036Y44810108D01*
X57709040Y44829678D01*
X57321236Y45617895D01*
X57308499Y45672636D01*
X57308500Y47117500D01*
X57328185Y47184540D01*
X57380989Y47230294D01*
X57432500Y47241500D01*
X62167500Y47241500D01*
X62234539Y47221815D01*
X62280294Y47169011D01*
X62291500Y47117500D01*
X62291500Y45616789D01*
X62287373Y45585063D01*
X61875278Y44028019D01*
X61874702Y44025656D01*
X61868787Y44007554D01*
X61853262Y43970073D01*
X61797538Y43737964D01*
X61778811Y43500000D01*
X61797538Y43262037D01*
X61853261Y43029932D01*
X61944608Y42809400D01*
X61944610Y42809396D01*
X61944611Y42809395D01*
X62069332Y42605868D01*
X62224357Y42424357D01*
X62405868Y42269332D01*
X62609395Y42144611D01*
X62609397Y42144611D01*
X62609399Y42144609D01*
X62653232Y42126453D01*
X62829927Y42053263D01*
X63062034Y41997539D01*
X63300000Y41978811D01*
X63537966Y41997539D01*
X63770073Y42053263D01*
X63990605Y42144611D01*
X64194132Y42269332D01*
X64375643Y42424357D01*
X64530668Y42605868D01*
X64655389Y42809395D01*
X64746737Y43029927D01*
X64802461Y43262034D01*
X64821189Y43500000D01*
X65278811Y43500000D01*
X65297538Y43262037D01*
X65353261Y43029932D01*
X65444608Y42809400D01*
X65444610Y42809396D01*
X65444611Y42809395D01*
X65569332Y42605868D01*
X65724357Y42424357D01*
X65905868Y42269332D01*
X66109395Y42144611D01*
X66109397Y42144611D01*
X66109399Y42144609D01*
X66153232Y42126453D01*
X66329927Y42053263D01*
X66562034Y41997539D01*
X66800000Y41978811D01*
X67037966Y41997539D01*
X67270073Y42053263D01*
X67490605Y42144611D01*
X67694132Y42269332D01*
X67875643Y42424357D01*
X68030668Y42605868D01*
X68155389Y42809395D01*
X68246737Y43029927D01*
X68302461Y43262034D01*
X68321189Y43500000D01*
X68302461Y43737966D01*
X68246737Y43970073D01*
X68155389Y44190605D01*
X68030668Y44394132D01*
X67875643Y44575643D01*
X67694132Y44730668D01*
X67490605Y44855389D01*
X67490604Y44855390D01*
X67490600Y44855392D01*
X67270068Y44946739D01*
X67037962Y45002462D01*
X67037963Y45002462D01*
X66800000Y45021189D01*
X66562036Y45002462D01*
X66329931Y44946739D01*
X66109399Y44855392D01*
X65905867Y44730668D01*
X65724357Y44575643D01*
X65569332Y44394133D01*
X65444608Y44190601D01*
X65353261Y43970069D01*
X65297538Y43737964D01*
X65278811Y43500000D01*
X64821189Y43500000D01*
X64802461Y43737966D01*
X64746737Y43970073D01*
X64731285Y44007376D01*
X64726368Y44023876D01*
X64725854Y44023739D01*
X64705670Y44100000D01*
X64312626Y45585063D01*
X64308500Y45616785D01*
X64308500Y47117500D01*
X64328185Y47184539D01*
X64380989Y47230294D01*
X64432500Y47241500D01*
X68080904Y47241500D01*
X68147943Y47221815D01*
X68168585Y47205181D01*
X69255182Y46118584D01*
X69288666Y46057263D01*
X69291500Y46030905D01*
X69291500Y45672638D01*
X69278763Y45617898D01*
X69270279Y45600652D01*
X68890956Y44829675D01*
X68878963Y44810110D01*
X68840205Y44758333D01*
X68840202Y44758328D01*
X68789908Y44623483D01*
X68784765Y44575643D01*
X68783501Y44563877D01*
X68783500Y44563865D01*
X68783500Y42436130D01*
X68783501Y42436124D01*
X68789908Y42376517D01*
X68840202Y42241672D01*
X68840206Y42241665D01*
X68926452Y42126456D01*
X68926455Y42126453D01*
X69041664Y42040207D01*
X69041671Y42040203D01*
X69176517Y41989909D01*
X69176516Y41989909D01*
X69183444Y41989165D01*
X69236127Y41983500D01*
X71363872Y41983501D01*
X71423483Y41989909D01*
X71558331Y42040204D01*
X71673546Y42126454D01*
X71759796Y42241669D01*
X71810091Y42376517D01*
X71816500Y42436127D01*
X71816499Y44563872D01*
X71810091Y44623483D01*
X71767837Y44736771D01*
X71759797Y44758329D01*
X71759795Y44758332D01*
X71759794Y44758333D01*
X71721036Y44810108D01*
X71709040Y44829678D01*
X71321237Y45617895D01*
X71308500Y45672636D01*
X71308500Y46447403D01*
X71308799Y46453483D01*
X71310068Y46466372D01*
X71313380Y46500000D01*
X71293909Y46697701D01*
X71236684Y46886341D01*
X71236320Y46887657D01*
X71142598Y47062999D01*
X71142594Y47063006D01*
X71016568Y47216568D01*
X70999843Y47230294D01*
X70980430Y47246226D01*
X70975930Y47250304D01*
X69300301Y48925933D01*
X69296222Y48930434D01*
X69266567Y48966570D01*
X69113005Y49092595D01*
X68939163Y49185515D01*
X68937966Y49186193D01*
X68747699Y49243910D01*
X68571597Y49261253D01*
X68550000Y49263380D01*
X68549999Y49263380D01*
X68503482Y49258799D01*
X68497402Y49258500D01*
X63352596Y49258500D01*
X63346515Y49258799D01*
X63300000Y49263380D01*
X63253485Y49258799D01*
X63247404Y49258500D01*
X56352596Y49258500D01*
X56346515Y49258799D01*
X56300000Y49263380D01*
X56253485Y49258799D01*
X56247404Y49258500D01*
X49352596Y49258500D01*
X49346515Y49258799D01*
X49300000Y49263380D01*
X49253485Y49258799D01*
X49247404Y49258500D01*
X8852596Y49258500D01*
X8846515Y49258799D01*
X8800000Y49263380D01*
X8750453Y49258500D01*
X8602300Y49243909D01*
X8412191Y49186240D01*
X8237001Y49092599D01*
X8236994Y49092595D01*
X8083431Y48966568D01*
X8053775Y48930433D01*
X8049687Y48925923D01*
X6624077Y47500313D01*
X6619567Y47496225D01*
X6583432Y47466569D01*
X6457405Y47313006D01*
X6457403Y47313002D01*
X6405859Y47216568D01*
X6363758Y47137804D01*
X6306091Y46947704D01*
X6286620Y46750000D01*
X6291201Y46703483D01*
X6291500Y46697403D01*
X6291500Y45616789D01*
X6287373Y45585063D01*
X5875278Y44028019D01*
X5874702Y44025656D01*
X5868787Y44007554D01*
X5853262Y43970073D01*
X5797538Y43737964D01*
X5778811Y43500000D01*
X5320687Y43500000D01*
X5301966Y43737884D01*
X5246257Y43969926D01*
X5154943Y44190379D01*
X5036769Y44383218D01*
X4362772Y43709221D01*
X4324099Y43802588D01*
X4227925Y43927925D01*
X4102588Y44024099D01*
X4009219Y44062774D01*
X4683216Y44736771D01*
X4490378Y44854944D01*
X4269924Y44946258D01*
X4269927Y44946258D01*
X4037883Y45001967D01*
X3800000Y45020688D01*
X3562116Y45001967D01*
X3330074Y44946258D01*
X3109621Y44854944D01*
X2916782Y44736771D01*
X3590780Y44062774D01*
X3497412Y44024099D01*
X3372075Y43927925D01*
X3275901Y43802589D01*
X3237226Y43709221D01*
X2563229Y44383218D01*
X2445056Y44190379D01*
X2353742Y43969926D01*
X2298033Y43737884D01*
X2279312Y43500000D01*
X500Y43500000D01*
X500Y49659500D01*
X20185Y49726539D01*
X72989Y49772294D01*
X124500Y49783500D01*
X73175500Y49783500D01*
X73242539Y49763815D01*
G37*
%TD.AperFunction*%
%TD*%
%TA.AperFunction,Conductor*%
%TO.N,D10*%
G36*
X36980696Y24359110D02*
G01*
X37592437Y24127859D01*
X37598964Y24121728D01*
X37600000Y24116915D01*
X37600000Y23883086D01*
X37596573Y23874813D01*
X37592437Y23872142D01*
X36963655Y23634449D01*
X36954705Y23634729D01*
X36948719Y23640891D01*
X36852306Y23872142D01*
X36800875Y23995501D01*
X36800855Y24004450D01*
X36948719Y24359111D01*
X36955066Y24365428D01*
X36963654Y24365552D01*
X36980696Y24359110D01*
G37*
%TD.AperFunction*%
%TD*%
%TA.AperFunction,Conductor*%
%TO.N,D10*%
G36*
X70645294Y24365272D02*
G01*
X70651280Y24359110D01*
X70799123Y24004502D01*
X70799144Y23995548D01*
X70799123Y23995498D01*
X70651280Y23640891D01*
X70644933Y23634573D01*
X70636344Y23634449D01*
X70007563Y23872142D01*
X70001036Y23878273D01*
X70000000Y23883086D01*
X70000000Y24116915D01*
X70003427Y24125188D01*
X70007563Y24127859D01*
X70636345Y24365552D01*
X70645294Y24365272D01*
G37*
%TD.AperFunction*%
%TD*%
%TA.AperFunction,Conductor*%
%TO.N,D5*%
G36*
X69145294Y13115272D02*
G01*
X69151280Y13109110D01*
X69299123Y12754502D01*
X69299144Y12745548D01*
X69299123Y12745498D01*
X69151280Y12390891D01*
X69144933Y12384573D01*
X69136344Y12384449D01*
X68507563Y12622142D01*
X68501036Y12628273D01*
X68500000Y12633086D01*
X68500000Y12866915D01*
X68503427Y12875188D01*
X68507563Y12877859D01*
X69136345Y13115552D01*
X69145294Y13115272D01*
G37*
%TD.AperFunction*%
%TD*%
%TA.AperFunction,Conductor*%
%TO.N,D5*%
G36*
X24230696Y13109110D02*
G01*
X24842437Y12877859D01*
X24848964Y12871728D01*
X24850000Y12866915D01*
X24850000Y12633086D01*
X24846573Y12624813D01*
X24842437Y12622142D01*
X24213655Y12384449D01*
X24204705Y12384729D01*
X24198719Y12390891D01*
X24102306Y12622142D01*
X24050875Y12745501D01*
X24050855Y12754450D01*
X24198719Y13109111D01*
X24205066Y13115428D01*
X24213654Y13115552D01*
X24230696Y13109110D01*
G37*
%TD.AperFunction*%
%TD*%
%TA.AperFunction,Conductor*%
%TO.N,D4*%
G36*
X21480696Y19609110D02*
G01*
X22092437Y19377859D01*
X22098964Y19371728D01*
X22100000Y19366915D01*
X22100000Y19133086D01*
X22096573Y19124813D01*
X22092437Y19122142D01*
X21463655Y18884449D01*
X21454705Y18884729D01*
X21448719Y18890891D01*
X21352306Y19122142D01*
X21300875Y19245501D01*
X21300855Y19254450D01*
X21448719Y19609111D01*
X21455066Y19615428D01*
X21463654Y19615552D01*
X21480696Y19609110D01*
G37*
%TD.AperFunction*%
%TD*%
%TA.AperFunction,Conductor*%
%TO.N,D4*%
G36*
X56895294Y19615272D02*
G01*
X56901280Y19609110D01*
X57049123Y19254502D01*
X57049144Y19245548D01*
X57049123Y19245498D01*
X56901280Y18890891D01*
X56894933Y18884573D01*
X56886344Y18884449D01*
X56257563Y19122142D01*
X56251036Y19128273D01*
X56250000Y19133086D01*
X56250000Y19366915D01*
X56253427Y19375188D01*
X56257563Y19377859D01*
X56886345Y19615552D01*
X56895294Y19615272D01*
G37*
%TD.AperFunction*%
%TD*%
%TA.AperFunction,Conductor*%
%TO.N,D3*%
G36*
X18980696Y21109110D02*
G01*
X19592437Y20877859D01*
X19598964Y20871728D01*
X19600000Y20866915D01*
X19600000Y20633086D01*
X19596573Y20624813D01*
X19592437Y20622142D01*
X18963655Y20384449D01*
X18954705Y20384729D01*
X18948719Y20390891D01*
X18852306Y20622142D01*
X18800875Y20745501D01*
X18800855Y20754450D01*
X18948719Y21109111D01*
X18955066Y21115428D01*
X18963654Y21115552D01*
X18980696Y21109110D01*
G37*
%TD.AperFunction*%
%TD*%
%TA.AperFunction,Conductor*%
%TO.N,D3*%
G36*
X55395294Y21115272D02*
G01*
X55401280Y21109110D01*
X55549123Y20754502D01*
X55549144Y20745548D01*
X55549123Y20745498D01*
X55401280Y20390891D01*
X55394933Y20384573D01*
X55386344Y20384449D01*
X54757563Y20622142D01*
X54751036Y20628273D01*
X54750000Y20633086D01*
X54750000Y20866915D01*
X54753427Y20875188D01*
X54757563Y20877859D01*
X55386345Y21115552D01*
X55395294Y21115272D01*
G37*
%TD.AperFunction*%
%TD*%
%TA.AperFunction,Conductor*%
%TO.N,D2*%
G36*
X16783014Y21898357D02*
G01*
X16948356Y21733015D01*
X16951783Y21724742D01*
X16950747Y21719929D01*
X16674206Y21107240D01*
X16667679Y21101109D01*
X16659090Y21101233D01*
X16303804Y21247437D01*
X16297457Y21253755D01*
X16297436Y21253805D01*
X16151232Y21609091D01*
X16151253Y21618045D01*
X16157237Y21624206D01*
X16769928Y21900749D01*
X16778878Y21901028D01*
X16783014Y21898357D01*
G37*
%TD.AperFunction*%
%TD*%
%TA.AperFunction,Conductor*%
%TO.N,D2*%
G36*
X42895294Y22615272D02*
G01*
X42901280Y22609110D01*
X43049123Y22254502D01*
X43049144Y22245548D01*
X43049123Y22245498D01*
X42901280Y21890891D01*
X42894933Y21884573D01*
X42886344Y21884449D01*
X42257563Y22122142D01*
X42251036Y22128273D01*
X42250000Y22133086D01*
X42250000Y22366915D01*
X42253427Y22375188D01*
X42257563Y22377859D01*
X42886345Y22615552D01*
X42895294Y22615272D01*
G37*
%TD.AperFunction*%
%TD*%
%TA.AperFunction,Conductor*%
%TO.N,12V*%
G36*
X63807266Y45512573D02*
G01*
X63810304Y45507294D01*
X64236047Y43898686D01*
X64234851Y43889811D01*
X64229223Y43884887D01*
X63304487Y43500864D01*
X63295532Y43500856D01*
X63295513Y43500864D01*
X62370776Y43884887D01*
X62364450Y43891224D01*
X62363952Y43898684D01*
X62789695Y45507294D01*
X62795126Y45514415D01*
X62801007Y45516000D01*
X63798993Y45516000D01*
X63807266Y45512573D01*
G37*
%TD.AperFunction*%
%TD*%
%TA.AperFunction,Conductor*%
%TO.N,12V*%
G36*
X56808990Y45512573D02*
G01*
X56811215Y45509465D01*
X57296335Y44523450D01*
X57296913Y44514514D01*
X57294180Y44510082D01*
X56308343Y43507485D01*
X56300099Y43503988D01*
X56291797Y43507345D01*
X56291657Y43507485D01*
X55305819Y44510082D01*
X55302462Y44518384D01*
X55303662Y44523445D01*
X55788784Y45509465D01*
X55795512Y45515376D01*
X55799283Y45516000D01*
X56800717Y45516000D01*
X56808990Y45512573D01*
G37*
%TD.AperFunction*%
%TD*%
%TA.AperFunction,Conductor*%
%TO.N,12V*%
G36*
X49807266Y45512573D02*
G01*
X49810304Y45507294D01*
X50236047Y43898686D01*
X50234851Y43889811D01*
X50229223Y43884887D01*
X49304487Y43500864D01*
X49295532Y43500856D01*
X49295513Y43500864D01*
X48370776Y43884887D01*
X48364450Y43891224D01*
X48363952Y43898684D01*
X48789695Y45507294D01*
X48795126Y45514415D01*
X48801007Y45516000D01*
X49798993Y45516000D01*
X49807266Y45512573D01*
G37*
%TD.AperFunction*%
%TD*%
%TA.AperFunction,Conductor*%
%TO.N,12V*%
G36*
X70808990Y45512573D02*
G01*
X70811215Y45509465D01*
X71296335Y44523450D01*
X71296913Y44514514D01*
X71294180Y44510082D01*
X70308342Y43507485D01*
X70300098Y43503988D01*
X70291796Y43507345D01*
X70291705Y43507436D01*
X69305818Y44510083D01*
X69302462Y44518384D01*
X69303662Y44523445D01*
X69788784Y45509465D01*
X69795512Y45515376D01*
X69799283Y45516000D01*
X70800717Y45516000D01*
X70808990Y45512573D01*
G37*
%TD.AperFunction*%
%TD*%
%TA.AperFunction,Conductor*%
%TO.N,12V*%
G36*
X7807266Y45512573D02*
G01*
X7810304Y45507294D01*
X8236047Y43898686D01*
X8234851Y43889811D01*
X8229223Y43884887D01*
X7304487Y43500864D01*
X7295532Y43500856D01*
X7295513Y43500864D01*
X6370776Y43884887D01*
X6364450Y43891224D01*
X6363952Y43898684D01*
X6789695Y45507294D01*
X6795126Y45514415D01*
X6801007Y45516000D01*
X7798993Y45516000D01*
X7807266Y45512573D01*
G37*
%TD.AperFunction*%
%TD*%
%TA.AperFunction,Conductor*%
%TO.N,A0*%
G36*
X24980696Y36859110D02*
G01*
X25592437Y36627859D01*
X25598964Y36621728D01*
X25600000Y36616915D01*
X25600000Y36383086D01*
X25596573Y36374813D01*
X25592437Y36372142D01*
X24963655Y36134449D01*
X24954705Y36134729D01*
X24948719Y36140891D01*
X24852306Y36372142D01*
X24800875Y36495501D01*
X24800855Y36504450D01*
X24948719Y36859111D01*
X24955066Y36865428D01*
X24963654Y36865552D01*
X24980696Y36859110D01*
G37*
%TD.AperFunction*%
%TD*%
%TA.AperFunction,Conductor*%
%TO.N,A0*%
G36*
X38895294Y36865272D02*
G01*
X38901280Y36859110D01*
X39049123Y36504502D01*
X39049144Y36495548D01*
X39049123Y36495498D01*
X38901280Y36140891D01*
X38894933Y36134573D01*
X38886344Y36134449D01*
X38257563Y36372142D01*
X38251036Y36378273D01*
X38250000Y36383086D01*
X38250000Y36616915D01*
X38253427Y36625188D01*
X38257563Y36627859D01*
X38886345Y36865552D01*
X38895294Y36865272D01*
G37*
%TD.AperFunction*%
%TD*%
%TA.AperFunction,Conductor*%
%TO.N,A1*%
G36*
X24480696Y38859110D02*
G01*
X25092437Y38627859D01*
X25098964Y38621728D01*
X25100000Y38616915D01*
X25100000Y38383086D01*
X25096573Y38374813D01*
X25092437Y38372142D01*
X24463655Y38134449D01*
X24454705Y38134729D01*
X24448719Y38140891D01*
X24352306Y38372142D01*
X24300875Y38495501D01*
X24300855Y38504450D01*
X24448719Y38859111D01*
X24455066Y38865428D01*
X24463654Y38865552D01*
X24480696Y38859110D01*
G37*
%TD.AperFunction*%
%TD*%
%TA.AperFunction,Conductor*%
%TO.N,A1*%
G36*
X31895294Y38865272D02*
G01*
X31901280Y38859110D01*
X32049123Y38504503D01*
X32049144Y38495549D01*
X32049123Y38495499D01*
X31901280Y38140891D01*
X31894933Y38134573D01*
X31886344Y38134449D01*
X31257563Y38372142D01*
X31251036Y38378273D01*
X31250000Y38383086D01*
X31250000Y38616915D01*
X31253427Y38625188D01*
X31257563Y38627859D01*
X31886345Y38865552D01*
X31895294Y38865272D01*
G37*
%TD.AperFunction*%
%TD*%
M02*
