%TF.GenerationSoftware,KiCad,Pcbnew,7.0.6*%
%TF.CreationDate,2024-01-12T02:35:33-05:00*%
%TF.ProjectId,PSA_Controller,5053415f-436f-46e7-9472-6f6c6c65722e,rev?*%
%TF.SameCoordinates,Original*%
%TF.FileFunction,Legend,Top*%
%TF.FilePolarity,Positive*%
%FSLAX46Y46*%
G04 Gerber Fmt 4.6, Leading zero omitted, Abs format (unit mm)*
G04 Created by KiCad (PCBNEW 7.0.6) date 2024-01-12 02:35:33*
%MOMM*%
%LPD*%
G01*
G04 APERTURE LIST*
%ADD10C,0.150000*%
%ADD11C,0.203200*%
%ADD12C,0.120000*%
G04 APERTURE END LIST*
D10*
X60450057Y27904762D02*
X60402438Y27809524D01*
X60402438Y27809524D02*
X60307200Y27714286D01*
X60307200Y27714286D02*
X60164342Y27571429D01*
X60164342Y27571429D02*
X60116723Y27476191D01*
X60116723Y27476191D02*
X60116723Y27380953D01*
X60354819Y27428572D02*
X60307200Y27333334D01*
X60307200Y27333334D02*
X60211961Y27238096D01*
X60211961Y27238096D02*
X60021485Y27190477D01*
X60021485Y27190477D02*
X59688152Y27190477D01*
X59688152Y27190477D02*
X59497676Y27238096D01*
X59497676Y27238096D02*
X59402438Y27333334D01*
X59402438Y27333334D02*
X59354819Y27428572D01*
X59354819Y27428572D02*
X59354819Y27619048D01*
X59354819Y27619048D02*
X59402438Y27714286D01*
X59402438Y27714286D02*
X59497676Y27809524D01*
X59497676Y27809524D02*
X59688152Y27857143D01*
X59688152Y27857143D02*
X60021485Y27857143D01*
X60021485Y27857143D02*
X60211961Y27809524D01*
X60211961Y27809524D02*
X60307200Y27714286D01*
X60307200Y27714286D02*
X60354819Y27619048D01*
X60354819Y27619048D02*
X60354819Y27428572D01*
X59450057Y28238096D02*
X59402438Y28285715D01*
X59402438Y28285715D02*
X59354819Y28380953D01*
X59354819Y28380953D02*
X59354819Y28619048D01*
X59354819Y28619048D02*
X59402438Y28714286D01*
X59402438Y28714286D02*
X59450057Y28761905D01*
X59450057Y28761905D02*
X59545295Y28809524D01*
X59545295Y28809524D02*
X59640533Y28809524D01*
X59640533Y28809524D02*
X59783390Y28761905D01*
X59783390Y28761905D02*
X60354819Y28190477D01*
X60354819Y28190477D02*
X60354819Y28809524D01*
X46450057Y27904762D02*
X46402438Y27809524D01*
X46402438Y27809524D02*
X46307200Y27714286D01*
X46307200Y27714286D02*
X46164342Y27571429D01*
X46164342Y27571429D02*
X46116723Y27476191D01*
X46116723Y27476191D02*
X46116723Y27380953D01*
X46354819Y27428572D02*
X46307200Y27333334D01*
X46307200Y27333334D02*
X46211961Y27238096D01*
X46211961Y27238096D02*
X46021485Y27190477D01*
X46021485Y27190477D02*
X45688152Y27190477D01*
X45688152Y27190477D02*
X45497676Y27238096D01*
X45497676Y27238096D02*
X45402438Y27333334D01*
X45402438Y27333334D02*
X45354819Y27428572D01*
X45354819Y27428572D02*
X45354819Y27619048D01*
X45354819Y27619048D02*
X45402438Y27714286D01*
X45402438Y27714286D02*
X45497676Y27809524D01*
X45497676Y27809524D02*
X45688152Y27857143D01*
X45688152Y27857143D02*
X46021485Y27857143D01*
X46021485Y27857143D02*
X46211961Y27809524D01*
X46211961Y27809524D02*
X46307200Y27714286D01*
X46307200Y27714286D02*
X46354819Y27619048D01*
X46354819Y27619048D02*
X46354819Y27428572D01*
X46354819Y28809524D02*
X46354819Y28238096D01*
X46354819Y28523810D02*
X45354819Y28523810D01*
X45354819Y28523810D02*
X45497676Y28428572D01*
X45497676Y28428572D02*
X45592914Y28333334D01*
X45592914Y28333334D02*
X45640533Y28238096D01*
D11*
%TO.C,J10*%
X57550000Y2900000D02*
X43550000Y2900000D01*
X57550000Y3700000D02*
X57550000Y2900000D01*
X57550000Y3700000D02*
X43550000Y3700000D01*
X57550000Y9900000D02*
X57550000Y3700000D01*
X43550000Y2900000D02*
X43550000Y3700000D01*
X43550000Y3700000D02*
X43550000Y9900000D01*
X43550000Y9900000D02*
X57550000Y9900000D01*
%TO.C,J9*%
X30050000Y40100000D02*
X16050000Y40100000D01*
X30050000Y46300000D02*
X30050000Y40100000D01*
X30050000Y47100000D02*
X30050000Y46300000D01*
X16050000Y40100000D02*
X16050000Y46300000D01*
X16050000Y46300000D02*
X30050000Y46300000D01*
X16050000Y46300000D02*
X16050000Y47100000D01*
X16050000Y47100000D02*
X30050000Y47100000D01*
%TO.C,J8*%
X57550000Y9900000D02*
X71550000Y9900000D01*
X57550000Y3700000D02*
X57550000Y9900000D01*
X57550000Y2900000D02*
X57550000Y3700000D01*
X71550000Y9900000D02*
X71550000Y3700000D01*
X71550000Y3700000D02*
X57550000Y3700000D01*
X71550000Y3700000D02*
X71550000Y2900000D01*
X71550000Y2900000D02*
X57550000Y2900000D01*
%TO.C,J7*%
X29550000Y9900000D02*
X43550000Y9900000D01*
X29550000Y3700000D02*
X29550000Y9900000D01*
X29550000Y2900000D02*
X29550000Y3700000D01*
X43550000Y9900000D02*
X43550000Y3700000D01*
X43550000Y3700000D02*
X29550000Y3700000D01*
X43550000Y3700000D02*
X43550000Y2900000D01*
X43550000Y2900000D02*
X29550000Y2900000D01*
%TO.C,J6*%
X15550000Y9900000D02*
X29550000Y9900000D01*
X15550000Y3700000D02*
X15550000Y9900000D01*
X15550000Y2900000D02*
X15550000Y3700000D01*
X29550000Y9900000D02*
X29550000Y3700000D01*
X29550000Y3700000D02*
X15550000Y3700000D01*
X29550000Y3700000D02*
X29550000Y2900000D01*
X29550000Y2900000D02*
X15550000Y2900000D01*
%TO.C,J5*%
X1550000Y9900000D02*
X15550000Y9900000D01*
X1550000Y3700000D02*
X1550000Y9900000D01*
X1550000Y2900000D02*
X1550000Y3700000D01*
X15550000Y9900000D02*
X15550000Y3700000D01*
X15550000Y3700000D02*
X1550000Y3700000D01*
X15550000Y3700000D02*
X15550000Y2900000D01*
X15550000Y2900000D02*
X1550000Y2900000D01*
%TO.C,J4*%
X44050000Y40100000D02*
X30050000Y40100000D01*
X44050000Y46300000D02*
X44050000Y40100000D01*
X44050000Y47100000D02*
X44050000Y46300000D01*
X30050000Y40100000D02*
X30050000Y46300000D01*
X30050000Y46300000D02*
X44050000Y46300000D01*
X30050000Y46300000D02*
X30050000Y47100000D01*
X30050000Y47100000D02*
X44050000Y47100000D01*
D12*
%TO.C,R16*%
X44277500Y21737258D02*
X44277500Y21262742D01*
X45322500Y21737258D02*
X45322500Y21262742D01*
%TO.C,R15*%
X58277500Y21737258D02*
X58277500Y21262742D01*
X59322500Y21737258D02*
X59322500Y21262742D01*
%TO.C,R14*%
X68322500Y21737258D02*
X68322500Y21262742D01*
X67277500Y21737258D02*
X67277500Y21262742D01*
%TO.C,R13*%
X53277500Y21737258D02*
X53277500Y21262742D01*
X54322500Y21737258D02*
X54322500Y21262742D01*
%TO.C,R12*%
X34537258Y35977500D02*
X34062742Y35977500D01*
X34537258Y37022500D02*
X34062742Y37022500D01*
%TO.C,R11*%
X34062742Y39022500D02*
X34537258Y39022500D01*
X34062742Y37977500D02*
X34537258Y37977500D01*
%TO.C,R10*%
X41537258Y35977500D02*
X41062742Y35977500D01*
X41537258Y37022500D02*
X41062742Y37022500D01*
%TO.C,R2*%
X41537258Y37977500D02*
X41062742Y37977500D01*
X41537258Y39022500D02*
X41062742Y39022500D01*
%TO.C,D10*%
X46800000Y20100000D02*
X47800000Y20100000D01*
%TO.C,D9*%
X60800000Y20100000D02*
X61800000Y20100000D01*
%TO.C,D8*%
X64800000Y20100000D02*
X65800000Y20100000D01*
D11*
%TO.C,D7*%
X37925000Y39270000D02*
X36675000Y39270000D01*
X37925000Y38400000D02*
X37925000Y36600000D01*
X36675000Y38400000D02*
X36675000Y36600000D01*
%TO.C,D6*%
X44925000Y39270000D02*
X43675000Y39270000D01*
X44925000Y38400000D02*
X44925000Y36600000D01*
X43675000Y38400000D02*
X43675000Y36600000D01*
%TO.C,U1*%
X2290000Y16110000D02*
X4830000Y16110000D01*
X2290000Y19920000D02*
X2290000Y16110000D01*
X21340000Y20047000D02*
X26293000Y25000000D01*
X956500Y20682000D02*
X956500Y29318000D01*
X8259000Y20682000D02*
X956500Y20682000D01*
X16387000Y25000000D02*
X21340000Y20047000D01*
X26293000Y25000000D02*
X21340000Y29953000D01*
X956500Y29318000D02*
X8259000Y29318000D01*
X8259000Y29318000D02*
X8259000Y20682000D01*
X21340000Y29953000D02*
X16387000Y25000000D01*
X2290000Y30080000D02*
X2290000Y33890000D01*
X2290000Y33890000D02*
X4830000Y33890000D01*
X35310000Y33890000D02*
X35310000Y16110000D01*
X956499Y20682000D02*
G75*
G03*
X956499Y29318000I-24145870J4318000D01*
G01*
D12*
%TO.C,R1*%
X44277500Y18237258D02*
X44277500Y17762742D01*
X45322500Y18237258D02*
X45322500Y17762742D01*
%TO.C,R6*%
X58277500Y18237258D02*
X58277500Y17762742D01*
X59322500Y18237258D02*
X59322500Y17762742D01*
D11*
%TO.C,J3*%
X58050000Y47100000D02*
X72050000Y47100000D01*
X58050000Y46300000D02*
X58050000Y47100000D01*
X58050000Y46300000D02*
X72050000Y46300000D01*
X58050000Y40100000D02*
X58050000Y46300000D01*
X72050000Y47100000D02*
X72050000Y46300000D01*
X72050000Y46300000D02*
X72050000Y40100000D01*
X72050000Y40100000D02*
X58050000Y40100000D01*
D12*
%TO.C,Q2*%
X65860000Y28000000D02*
X65860000Y29950000D01*
X65860000Y28000000D02*
X65860000Y26050000D01*
X60740000Y28000000D02*
X60740000Y29950000D01*
X60740000Y28000000D02*
X60740000Y24550000D01*
D11*
%TO.C,J2*%
X44050000Y47100000D02*
X58050000Y47100000D01*
X44050000Y46300000D02*
X44050000Y47100000D01*
X44050000Y46300000D02*
X58050000Y46300000D01*
X44050000Y40100000D02*
X44050000Y46300000D01*
X58050000Y47100000D02*
X58050000Y46300000D01*
X58050000Y46300000D02*
X58050000Y40100000D01*
X58050000Y40100000D02*
X44050000Y40100000D01*
D12*
%TO.C,R9*%
X64777500Y17762742D02*
X64777500Y18237258D01*
X65822500Y17762742D02*
X65822500Y18237258D01*
%TO.C,C1*%
X12940580Y38260000D02*
X12659420Y38260000D01*
X12940580Y37240000D02*
X12659420Y37240000D01*
%TO.C,R7*%
X61822500Y17762742D02*
X61822500Y18237258D01*
X60777500Y17762742D02*
X60777500Y18237258D01*
D11*
%TO.C,D4*%
X69675000Y37900000D02*
X69675000Y36100000D01*
X70925000Y37900000D02*
X70925000Y36100000D01*
X70925000Y38770000D02*
X69675000Y38770000D01*
%TO.C,J1*%
X16050000Y40100000D02*
X2050000Y40100000D01*
X16050000Y46300000D02*
X16050000Y40100000D01*
X16050000Y47100000D02*
X16050000Y46300000D01*
X2050000Y40100000D02*
X2050000Y46300000D01*
X2050000Y46300000D02*
X16050000Y46300000D01*
X2050000Y46300000D02*
X2050000Y47100000D01*
X2050000Y47100000D02*
X16050000Y47100000D01*
%TO.C,D1*%
X49925000Y38770000D02*
X48675000Y38770000D01*
X49925000Y37900000D02*
X49925000Y36100000D01*
X48675000Y37900000D02*
X48675000Y36100000D01*
D12*
%TO.C,R8*%
X68322500Y18237258D02*
X68322500Y17762742D01*
X67277500Y18237258D02*
X67277500Y17762742D01*
%TO.C,R5*%
X51822500Y17762742D02*
X51822500Y18237258D01*
X50777500Y17762742D02*
X50777500Y18237258D01*
%TO.C,Q1*%
X51860000Y28000000D02*
X51860000Y29950000D01*
X51860000Y28000000D02*
X51860000Y26050000D01*
X46740000Y28000000D02*
X46740000Y29950000D01*
X46740000Y28000000D02*
X46740000Y24550000D01*
%TO.C,D5*%
X50800000Y20100000D02*
X51800000Y20100000D01*
D11*
%TO.C,D2*%
X55675000Y37900000D02*
X55675000Y36100000D01*
X56925000Y37900000D02*
X56925000Y36100000D01*
X56925000Y38770000D02*
X55675000Y38770000D01*
D12*
%TO.C,R3*%
X47822500Y17762742D02*
X47822500Y18237258D01*
X46777500Y17762742D02*
X46777500Y18237258D01*
D11*
%TO.C,D3*%
X62675000Y37900000D02*
X62675000Y36100000D01*
X63925000Y37900000D02*
X63925000Y36100000D01*
X63925000Y38770000D02*
X62675000Y38770000D01*
D12*
%TO.C,R4*%
X53277500Y18237258D02*
X53277500Y17762742D01*
X54322500Y18237258D02*
X54322500Y17762742D01*
%TD*%
M02*
