%TF.GenerationSoftware,KiCad,Pcbnew,7.0.6*%
%TF.CreationDate,2024-01-12T02:35:33-05:00*%
%TF.ProjectId,PSA_Controller,5053415f-436f-46e7-9472-6f6c6c65722e,rev?*%
%TF.SameCoordinates,Original*%
%TF.FileFunction,Soldermask,Top*%
%TF.FilePolarity,Negative*%
%FSLAX46Y46*%
G04 Gerber Fmt 4.6, Leading zero omitted, Abs format (unit mm)*
G04 Created by KiCad (PCBNEW 7.0.6) date 2024-01-12 02:35:33*
%MOMM*%
%LPD*%
G01*
G04 APERTURE LIST*
G04 Aperture macros list*
%AMRoundRect*
0 Rectangle with rounded corners*
0 $1 Rounding radius*
0 $2 $3 $4 $5 $6 $7 $8 $9 X,Y pos of 4 corners*
0 Add a 4 corners polygon primitive as box body*
4,1,4,$2,$3,$4,$5,$6,$7,$8,$9,$2,$3,0*
0 Add four circle primitives for the rounded corners*
1,1,$1+$1,$2,$3*
1,1,$1+$1,$4,$5*
1,1,$1+$1,$6,$7*
1,1,$1+$1,$8,$9*
0 Add four rect primitives between the rounded corners*
20,1,$1+$1,$2,$3,$4,$5,0*
20,1,$1+$1,$4,$5,$6,$7,0*
20,1,$1+$1,$6,$7,$8,$9,0*
20,1,$1+$1,$8,$9,$2,$3,0*%
G04 Aperture macros list end*
%ADD10C,2.235200*%
%ADD11RoundRect,0.101600X-1.016000X-1.016000X1.016000X-1.016000X1.016000X1.016000X-1.016000X1.016000X0*%
%ADD12RoundRect,0.101600X1.016000X1.016000X-1.016000X1.016000X-1.016000X-1.016000X1.016000X-1.016000X0*%
%ADD13RoundRect,0.200000X-0.275000X0.200000X-0.275000X-0.200000X0.275000X-0.200000X0.275000X0.200000X0*%
%ADD14RoundRect,0.200000X0.200000X0.275000X-0.200000X0.275000X-0.200000X-0.275000X0.200000X-0.275000X0*%
%ADD15RoundRect,0.200000X-0.200000X-0.275000X0.200000X-0.275000X0.200000X0.275000X-0.200000X0.275000X0*%
%ADD16RoundRect,0.218750X0.256250X-0.218750X0.256250X0.218750X-0.256250X0.218750X-0.256250X-0.218750X0*%
%ADD17RoundRect,0.101600X-0.415000X0.315000X-0.415000X-0.315000X0.415000X-0.315000X0.415000X0.315000X0*%
%ADD18RoundRect,0.736600X0.000000X-0.635000X0.000000X0.635000X0.000000X0.635000X0.000000X-0.635000X0*%
%ADD19RoundRect,0.150000X0.150000X-0.825000X0.150000X0.825000X-0.150000X0.825000X-0.150000X-0.825000X0*%
%ADD20RoundRect,0.200000X0.275000X-0.200000X0.275000X0.200000X-0.275000X0.200000X-0.275000X-0.200000X0*%
%ADD21RoundRect,0.225000X0.225000X0.250000X-0.225000X0.250000X-0.225000X-0.250000X0.225000X-0.250000X0*%
G04 APERTURE END LIST*
D10*
%TO.C,J10*%
X55800000Y6500000D03*
X52300000Y6500000D03*
X48800000Y6500000D03*
D11*
X45300000Y6500000D03*
%TD*%
D12*
%TO.C,J9*%
X28300000Y43500000D03*
D10*
X24800000Y43500000D03*
X21300000Y43500000D03*
X17800000Y43500000D03*
%TD*%
D11*
%TO.C,J8*%
X59300000Y6500000D03*
D10*
X62800000Y6500000D03*
X66300000Y6500000D03*
X69800000Y6500000D03*
%TD*%
D11*
%TO.C,J7*%
X31300000Y6500000D03*
D10*
X34800000Y6500000D03*
X38300000Y6500000D03*
X41800000Y6500000D03*
%TD*%
D11*
%TO.C,J6*%
X17300000Y6500000D03*
D10*
X20800000Y6500000D03*
X24300000Y6500000D03*
X27800000Y6500000D03*
%TD*%
D11*
%TO.C,J5*%
X3300000Y6500000D03*
D10*
X6800000Y6500000D03*
X10300000Y6500000D03*
X13800000Y6500000D03*
%TD*%
D12*
%TO.C,J4*%
X42300000Y43500000D03*
D10*
X38800000Y43500000D03*
X35300000Y43500000D03*
X31800000Y43500000D03*
%TD*%
D13*
%TO.C,R16*%
X44800000Y20675000D03*
X44800000Y22325000D03*
%TD*%
%TO.C,R15*%
X58800000Y20675000D03*
X58800000Y22325000D03*
%TD*%
%TO.C,R14*%
X67800000Y22325000D03*
X67800000Y20675000D03*
%TD*%
%TO.C,R13*%
X53800000Y20675000D03*
X53800000Y22325000D03*
%TD*%
D14*
%TO.C,R12*%
X35125000Y36500000D03*
X33475000Y36500000D03*
%TD*%
D15*
%TO.C,R11*%
X33475000Y38500000D03*
X35125000Y38500000D03*
%TD*%
D14*
%TO.C,R10*%
X42125000Y36500000D03*
X40475000Y36500000D03*
%TD*%
%TO.C,R2*%
X42125000Y38500000D03*
X40475000Y38500000D03*
%TD*%
D16*
%TO.C,D10*%
X47300000Y22287500D03*
X47300000Y20712500D03*
%TD*%
%TO.C,D9*%
X61300000Y22287500D03*
X61300000Y20712500D03*
%TD*%
%TO.C,D8*%
X65300000Y20712500D03*
X65300000Y22287500D03*
%TD*%
D17*
%TO.C,D7*%
X37300000Y36350000D03*
X37300000Y38650000D03*
%TD*%
%TO.C,D6*%
X44300000Y36350000D03*
X44300000Y38650000D03*
%TD*%
D18*
%TO.C,U1*%
X6100000Y16110000D03*
X8640000Y16110000D03*
X11180000Y16110000D03*
X13720000Y16110000D03*
X16260000Y16110000D03*
X18800000Y16110000D03*
X21340000Y16110000D03*
X23880000Y16110000D03*
X26420000Y16110000D03*
X28960000Y16110000D03*
X31500000Y16110000D03*
X34040000Y16110000D03*
X34040000Y33890000D03*
X31500000Y33890000D03*
X28960000Y33890000D03*
X26420000Y33890000D03*
X23880000Y33890000D03*
X21340000Y33890000D03*
X18800000Y33890000D03*
X16260000Y33890000D03*
X13720000Y33890000D03*
X11180000Y33890000D03*
X8640000Y33890000D03*
X6100000Y33890000D03*
%TD*%
D13*
%TO.C,R1*%
X44800000Y17175000D03*
X44800000Y18825000D03*
%TD*%
%TO.C,R6*%
X58800000Y17175000D03*
X58800000Y18825000D03*
%TD*%
D10*
%TO.C,J3*%
X59800000Y43500000D03*
X63300000Y43500000D03*
X66800000Y43500000D03*
D12*
X70300000Y43500000D03*
%TD*%
D19*
%TO.C,Q2*%
X61395000Y30475000D03*
X62665000Y30475000D03*
X63935000Y30475000D03*
X65205000Y30475000D03*
X65205000Y25525000D03*
X63935000Y25525000D03*
X62665000Y25525000D03*
X61395000Y25525000D03*
%TD*%
D10*
%TO.C,J2*%
X45800000Y43500000D03*
X49300000Y43500000D03*
X52800000Y43500000D03*
D12*
X56300000Y43500000D03*
%TD*%
D20*
%TO.C,R9*%
X65300000Y17175000D03*
X65300000Y18825000D03*
%TD*%
D21*
%TO.C,C1*%
X12025000Y37750000D03*
X13575000Y37750000D03*
%TD*%
D20*
%TO.C,R7*%
X61300000Y18825000D03*
X61300000Y17175000D03*
%TD*%
D17*
%TO.C,D4*%
X70300000Y38150000D03*
X70300000Y35850000D03*
%TD*%
D12*
%TO.C,J1*%
X14300000Y43500000D03*
D10*
X10800000Y43500000D03*
X7300000Y43500000D03*
X3800000Y43500000D03*
%TD*%
D17*
%TO.C,D1*%
X49300000Y35850000D03*
X49300000Y38150000D03*
%TD*%
D13*
%TO.C,R8*%
X67800000Y18825000D03*
X67800000Y17175000D03*
%TD*%
D20*
%TO.C,R5*%
X51300000Y18825000D03*
X51300000Y17175000D03*
%TD*%
D19*
%TO.C,Q1*%
X47395000Y30475000D03*
X48665000Y30475000D03*
X49935000Y30475000D03*
X51205000Y30475000D03*
X51205000Y25525000D03*
X49935000Y25525000D03*
X48665000Y25525000D03*
X47395000Y25525000D03*
%TD*%
D16*
%TO.C,D5*%
X51300000Y22287500D03*
X51300000Y20712500D03*
%TD*%
D17*
%TO.C,D2*%
X56300000Y38150000D03*
X56300000Y35850000D03*
%TD*%
D20*
%TO.C,R3*%
X47300000Y18825000D03*
X47300000Y17175000D03*
%TD*%
D17*
%TO.C,D3*%
X63300000Y38150000D03*
X63300000Y35850000D03*
%TD*%
D13*
%TO.C,R4*%
X53800000Y17175000D03*
X53800000Y18825000D03*
%TD*%
M02*
