M48
; DRILL file {KiCad 7.0.6} date Fri Jan 12 02:35:33 2024
; FORMAT={-:-/ absolute / metric / decimal}
; #@! TF.CreationDate,2024-01-12T02:35:33-05:00
; #@! TF.GenerationSoftware,Kicad,Pcbnew,7.0.6
; #@! TF.FileFunction,MixedPlating,1,2
FMAT,2
METRIC
; #@! TA.AperFunction,Plated,PTH,ViaDrill
T1C0.400
; #@! TA.AperFunction,Plated,PTH,ComponentDrill
T2C1.200
%
G90
G05
T1
X16.3Y21.25
X18.8Y20.75
X21.3Y19.25
X24.05Y12.75
X24.3Y38.5
X24.8Y36.5
X32.05Y38.5
X36.8Y24.0
X39.05Y36.5
X43.05Y22.25
X46.05Y21.5
X46.05Y20.0
X46.05Y18.0
X52.55Y21.5
X52.55Y20.0
X52.55Y18.0
X55.55Y20.75
X57.05Y19.25
X60.05Y21.25
X60.05Y19.75
X60.05Y18.25
X66.55Y21.25
X66.55Y19.75
X66.55Y18.25
X69.3Y12.75
X70.8Y24.0
T2
X3.3Y6.5
X3.8Y43.5
X6.8Y6.5
X7.3Y43.5
X10.3Y6.5
X10.8Y43.5
X13.8Y6.5
X14.3Y43.5
X17.3Y6.5
X17.8Y43.5
X20.8Y6.5
X21.3Y43.5
X24.3Y6.5
X24.8Y43.5
X27.8Y6.5
X28.3Y43.5
X31.3Y6.5
X31.8Y43.5
X34.8Y6.5
X35.3Y43.5
X38.3Y6.5
X38.8Y43.5
X41.8Y6.5
X42.3Y43.5
X45.3Y6.5
X45.8Y43.5
X48.8Y6.5
X49.3Y43.5
X52.3Y6.5
X52.8Y43.5
X55.8Y6.5
X56.3Y43.5
X59.3Y6.5
X59.8Y43.5
X62.8Y6.5
X63.3Y43.5
X66.3Y6.5
X66.8Y43.5
X69.8Y6.5
X70.3Y43.5
T0
M30
