%TF.GenerationSoftware,KiCad,Pcbnew,7.0.6*%
%TF.CreationDate,2024-01-12T02:35:33-05:00*%
%TF.ProjectId,PSA_Controller,5053415f-436f-46e7-9472-6f6c6c65722e,rev?*%
%TF.SameCoordinates,Original*%
%TF.FileFunction,Soldermask,Bot*%
%TF.FilePolarity,Negative*%
%FSLAX46Y46*%
G04 Gerber Fmt 4.6, Leading zero omitted, Abs format (unit mm)*
G04 Created by KiCad (PCBNEW 7.0.6) date 2024-01-12 02:35:33*
%MOMM*%
%LPD*%
G01*
G04 APERTURE LIST*
G04 Aperture macros list*
%AMRoundRect*
0 Rectangle with rounded corners*
0 $1 Rounding radius*
0 $2 $3 $4 $5 $6 $7 $8 $9 X,Y pos of 4 corners*
0 Add a 4 corners polygon primitive as box body*
4,1,4,$2,$3,$4,$5,$6,$7,$8,$9,$2,$3,0*
0 Add four circle primitives for the rounded corners*
1,1,$1+$1,$2,$3*
1,1,$1+$1,$4,$5*
1,1,$1+$1,$6,$7*
1,1,$1+$1,$8,$9*
0 Add four rect primitives between the rounded corners*
20,1,$1+$1,$2,$3,$4,$5,0*
20,1,$1+$1,$4,$5,$6,$7,0*
20,1,$1+$1,$6,$7,$8,$9,0*
20,1,$1+$1,$8,$9,$2,$3,0*%
G04 Aperture macros list end*
%ADD10C,2.235200*%
%ADD11RoundRect,0.101600X-1.016000X-1.016000X1.016000X-1.016000X1.016000X1.016000X-1.016000X1.016000X0*%
%ADD12RoundRect,0.101600X1.016000X1.016000X-1.016000X1.016000X-1.016000X-1.016000X1.016000X-1.016000X0*%
G04 APERTURE END LIST*
D10*
%TO.C,J10*%
X55800000Y6500000D03*
X52300000Y6500000D03*
X48800000Y6500000D03*
D11*
X45300000Y6500000D03*
%TD*%
D12*
%TO.C,J9*%
X28300000Y43500000D03*
D10*
X24800000Y43500000D03*
X21300000Y43500000D03*
X17800000Y43500000D03*
%TD*%
D11*
%TO.C,J8*%
X59300000Y6500000D03*
D10*
X62800000Y6500000D03*
X66300000Y6500000D03*
X69800000Y6500000D03*
%TD*%
D11*
%TO.C,J7*%
X31300000Y6500000D03*
D10*
X34800000Y6500000D03*
X38300000Y6500000D03*
X41800000Y6500000D03*
%TD*%
D11*
%TO.C,J6*%
X17300000Y6500000D03*
D10*
X20800000Y6500000D03*
X24300000Y6500000D03*
X27800000Y6500000D03*
%TD*%
D11*
%TO.C,J5*%
X3300000Y6500000D03*
D10*
X6800000Y6500000D03*
X10300000Y6500000D03*
X13800000Y6500000D03*
%TD*%
D12*
%TO.C,J4*%
X42300000Y43500000D03*
D10*
X38800000Y43500000D03*
X35300000Y43500000D03*
X31800000Y43500000D03*
%TD*%
%TO.C,J3*%
X59800000Y43500000D03*
X63300000Y43500000D03*
X66800000Y43500000D03*
D12*
X70300000Y43500000D03*
%TD*%
D10*
%TO.C,J2*%
X45800000Y43500000D03*
X49300000Y43500000D03*
X52800000Y43500000D03*
D12*
X56300000Y43500000D03*
%TD*%
%TO.C,J1*%
X14300000Y43500000D03*
D10*
X10800000Y43500000D03*
X7300000Y43500000D03*
X3800000Y43500000D03*
%TD*%
M02*
