%TF.GenerationSoftware,KiCad,Pcbnew,7.0.6*%
%TF.CreationDate,2024-01-12T02:35:33-05:00*%
%TF.ProjectId,PSA_Controller,5053415f-436f-46e7-9472-6f6c6c65722e,rev?*%
%TF.SameCoordinates,Original*%
%TF.FileFunction,Soldermask,Bot*%
%TF.FilePolarity,Negative*%
%FSLAX46Y46*%
G04 Gerber Fmt 4.6, Leading zero omitted, Abs format (unit mm)*
G04 Created by KiCad (PCBNEW 7.0.6) date 2024-01-12 02:35:33*
%MOMM*%
%LPD*%
G01*
G04 APERTURE LIST*
%TA.AperFunction,Profile*%
%ADD10C,0.100000*%
%TD*%
G04 APERTURE END LIST*
D10*
X73300000Y0D02*
X0Y0D01*
X73300000Y49784000D02*
X73300000Y0D01*
X0Y49784000D02*
X73300000Y49784000D01*
X0Y0D02*
X0Y49784000D01*
%TO.C,U1*%
G36*
X6281104Y18150597D02*
G01*
X6454676Y18094891D01*
X6612143Y18003052D01*
X6746092Y17879409D01*
X6851017Y17728624D01*
X6950900Y17383603D01*
X6950900Y16084600D01*
X5249100Y16084600D01*
X5249100Y17382205D01*
X5280396Y17561212D01*
X5349788Y17729779D01*
X5453909Y17879409D01*
X5587858Y18003053D01*
X5745325Y18094891D01*
X5918897Y18150597D01*
X6098817Y18167400D01*
X6101184Y18167400D01*
X6281104Y18150597D01*
G37*
G36*
X8821104Y18150597D02*
G01*
X8994676Y18094891D01*
X9152143Y18003052D01*
X9286092Y17879409D01*
X9391017Y17728624D01*
X9490900Y17383603D01*
X9490900Y16084600D01*
X7789100Y16084600D01*
X7789100Y17382205D01*
X7820396Y17561212D01*
X7889788Y17729779D01*
X7993909Y17879409D01*
X8127858Y18003053D01*
X8285325Y18094891D01*
X8458897Y18150597D01*
X8638817Y18167400D01*
X8641184Y18167400D01*
X8821104Y18150597D01*
G37*
G36*
X11361104Y18150597D02*
G01*
X11534676Y18094891D01*
X11692143Y18003052D01*
X11826092Y17879409D01*
X11931017Y17728624D01*
X12030900Y17383603D01*
X12030900Y16084600D01*
X10329100Y16084600D01*
X10329100Y17382205D01*
X10360396Y17561212D01*
X10429788Y17729779D01*
X10533909Y17879409D01*
X10667858Y18003053D01*
X10825325Y18094891D01*
X10998897Y18150597D01*
X11178817Y18167400D01*
X11181184Y18167400D01*
X11361104Y18150597D01*
G37*
G36*
X13901104Y18150597D02*
G01*
X14074676Y18094891D01*
X14232143Y18003052D01*
X14366092Y17879409D01*
X14471017Y17728624D01*
X14570900Y17383603D01*
X14570900Y16084600D01*
X12869100Y16084600D01*
X12869100Y17382205D01*
X12900396Y17561212D01*
X12969788Y17729779D01*
X13073909Y17879409D01*
X13207858Y18003053D01*
X13365325Y18094891D01*
X13538897Y18150597D01*
X13718817Y18167400D01*
X13721184Y18167400D01*
X13901104Y18150597D01*
G37*
G36*
X16441104Y18150597D02*
G01*
X16614676Y18094891D01*
X16772143Y18003052D01*
X16906092Y17879409D01*
X17011017Y17728624D01*
X17110900Y17383603D01*
X17110900Y16084600D01*
X15409100Y16084600D01*
X15409100Y17382205D01*
X15440396Y17561212D01*
X15509788Y17729779D01*
X15613909Y17879409D01*
X15747858Y18003053D01*
X15905325Y18094891D01*
X16078897Y18150597D01*
X16258817Y18167400D01*
X16261184Y18167400D01*
X16441104Y18150597D01*
G37*
G36*
X18981104Y18150597D02*
G01*
X19154676Y18094891D01*
X19312142Y18003052D01*
X19446091Y17879408D01*
X19551016Y17728624D01*
X19650900Y17383603D01*
X19650900Y16084600D01*
X17949100Y16084600D01*
X17949100Y17382205D01*
X17980396Y17561212D01*
X18049788Y17729779D01*
X18153909Y17879409D01*
X18287858Y18003053D01*
X18445325Y18094891D01*
X18618897Y18150597D01*
X18798817Y18167400D01*
X18801184Y18167400D01*
X18981104Y18150597D01*
G37*
G36*
X21521104Y18150597D02*
G01*
X21694676Y18094891D01*
X21852142Y18003052D01*
X21986091Y17879408D01*
X22091016Y17728624D01*
X22190900Y17383603D01*
X22190900Y16084600D01*
X20489100Y16084600D01*
X20489100Y17382205D01*
X20520396Y17561212D01*
X20589788Y17729779D01*
X20693910Y17879409D01*
X20827858Y18003053D01*
X20985325Y18094891D01*
X21158897Y18150596D01*
X21338816Y18167400D01*
X21341184Y18167400D01*
X21521104Y18150597D01*
G37*
G36*
X24061104Y18150597D02*
G01*
X24234676Y18094891D01*
X24392142Y18003052D01*
X24526091Y17879408D01*
X24631016Y17728624D01*
X24730900Y17383603D01*
X24730900Y16084600D01*
X23029100Y16084600D01*
X23029100Y17382205D01*
X23060396Y17561212D01*
X23129788Y17729779D01*
X23233910Y17879409D01*
X23367858Y18003053D01*
X23525325Y18094891D01*
X23698897Y18150596D01*
X23878816Y18167400D01*
X23881184Y18167400D01*
X24061104Y18150597D01*
G37*
G36*
X26601104Y18150597D02*
G01*
X26774676Y18094891D01*
X26932142Y18003052D01*
X27066091Y17879408D01*
X27171016Y17728624D01*
X27270900Y17383603D01*
X27270900Y16084600D01*
X25569100Y16084600D01*
X25569100Y17382205D01*
X25600396Y17561212D01*
X25669788Y17729779D01*
X25773910Y17879409D01*
X25907858Y18003053D01*
X26065325Y18094891D01*
X26238897Y18150596D01*
X26418816Y18167400D01*
X26421184Y18167400D01*
X26601104Y18150597D01*
G37*
G36*
X29141104Y18150597D02*
G01*
X29314676Y18094891D01*
X29472142Y18003052D01*
X29606091Y17879408D01*
X29711016Y17728624D01*
X29810900Y17383603D01*
X29810900Y16084600D01*
X28109100Y16084600D01*
X28109100Y17382205D01*
X28140396Y17561212D01*
X28209788Y17729779D01*
X28313910Y17879409D01*
X28447858Y18003053D01*
X28605325Y18094891D01*
X28778897Y18150596D01*
X28958816Y18167400D01*
X28961184Y18167400D01*
X29141104Y18150597D01*
G37*
G36*
X31681104Y18150597D02*
G01*
X31854676Y18094891D01*
X32012142Y18003052D01*
X32146091Y17879408D01*
X32251016Y17728624D01*
X32350900Y17383603D01*
X32350900Y16084600D01*
X30649100Y16084600D01*
X30649100Y17382205D01*
X30680396Y17561212D01*
X30749788Y17729779D01*
X30853910Y17879409D01*
X30987858Y18003053D01*
X31145325Y18094891D01*
X31318897Y18150596D01*
X31498816Y18167400D01*
X31501184Y18167400D01*
X31681104Y18150597D01*
G37*
G36*
X34221104Y18150597D02*
G01*
X34394676Y18094891D01*
X34552142Y18003052D01*
X34686091Y17879408D01*
X34791016Y17728624D01*
X34890900Y17383603D01*
X34890900Y16084600D01*
X33189100Y16084600D01*
X33189100Y17382205D01*
X33220396Y17561212D01*
X33289788Y17729779D01*
X33393910Y17879409D01*
X33527858Y18003053D01*
X33685325Y18094891D01*
X33858897Y18150596D01*
X34038816Y18167400D01*
X34041184Y18167400D01*
X34221104Y18150597D01*
G37*
G36*
X19650900Y32617795D02*
G01*
X19619604Y32438788D01*
X19550212Y32270221D01*
X19446091Y32120591D01*
X19312142Y31996947D01*
X19153459Y31904400D01*
X18802572Y31832600D01*
X18798816Y31832600D01*
X18618896Y31849403D01*
X18445324Y31905109D01*
X18287858Y31996948D01*
X18153909Y32120592D01*
X18049788Y32270222D01*
X17980396Y32438789D01*
X17949100Y32617796D01*
X17949100Y33915400D01*
X19650900Y33915400D01*
X19650900Y32617795D01*
G37*
G36*
X22190900Y32617795D02*
G01*
X22159604Y32438788D01*
X22090212Y32270221D01*
X21986091Y32120591D01*
X21852142Y31996947D01*
X21693459Y31904400D01*
X21342572Y31832600D01*
X21338816Y31832600D01*
X21158896Y31849403D01*
X20985324Y31905109D01*
X20827857Y31996948D01*
X20693908Y32120591D01*
X20589787Y32270222D01*
X20520395Y32438789D01*
X20489100Y32617796D01*
X20489100Y33915400D01*
X22190900Y33915400D01*
X22190900Y32617795D01*
G37*
G36*
X24730900Y32617795D02*
G01*
X24699604Y32438788D01*
X24630212Y32270221D01*
X24526091Y32120591D01*
X24392142Y31996947D01*
X24233459Y31904400D01*
X23882572Y31832600D01*
X23878816Y31832600D01*
X23698896Y31849403D01*
X23525324Y31905109D01*
X23367857Y31996948D01*
X23233908Y32120591D01*
X23129787Y32270222D01*
X23060395Y32438789D01*
X23029100Y32617796D01*
X23029100Y33915400D01*
X24730900Y33915400D01*
X24730900Y32617795D01*
G37*
G36*
X27270900Y32617795D02*
G01*
X27239604Y32438788D01*
X27170212Y32270221D01*
X27066091Y32120591D01*
X26932142Y31996947D01*
X26773459Y31904400D01*
X26422572Y31832600D01*
X26418816Y31832600D01*
X26238896Y31849403D01*
X26065324Y31905109D01*
X25907857Y31996948D01*
X25773908Y32120591D01*
X25669787Y32270222D01*
X25600395Y32438789D01*
X25569100Y32617796D01*
X25569100Y33915400D01*
X27270900Y33915400D01*
X27270900Y32617795D01*
G37*
G36*
X29810900Y32617795D02*
G01*
X29779604Y32438788D01*
X29710212Y32270221D01*
X29606091Y32120591D01*
X29472142Y31996947D01*
X29313459Y31904400D01*
X28962572Y31832600D01*
X28958816Y31832600D01*
X28778896Y31849403D01*
X28605324Y31905109D01*
X28447857Y31996948D01*
X28313908Y32120591D01*
X28209787Y32270222D01*
X28140395Y32438789D01*
X28109100Y32617796D01*
X28109100Y33915400D01*
X29810900Y33915400D01*
X29810900Y32617795D01*
G37*
G36*
X32350900Y32617795D02*
G01*
X32319604Y32438788D01*
X32250212Y32270221D01*
X32146091Y32120591D01*
X32012142Y31996947D01*
X31853459Y31904400D01*
X31502572Y31832600D01*
X31498816Y31832600D01*
X31318896Y31849403D01*
X31145324Y31905109D01*
X30987857Y31996948D01*
X30853908Y32120591D01*
X30749787Y32270222D01*
X30680395Y32438789D01*
X30649100Y32617796D01*
X30649100Y33915400D01*
X32350900Y33915400D01*
X32350900Y32617795D01*
G37*
G36*
X34890900Y32617795D02*
G01*
X34859604Y32438788D01*
X34790212Y32270221D01*
X34686091Y32120591D01*
X34552142Y31996947D01*
X34393459Y31904400D01*
X34042572Y31832600D01*
X34038816Y31832600D01*
X33858896Y31849403D01*
X33685324Y31905109D01*
X33527857Y31996948D01*
X33393908Y32120591D01*
X33289787Y32270222D01*
X33220395Y32438789D01*
X33189100Y32617796D01*
X33189100Y33915400D01*
X34890900Y33915400D01*
X34890900Y32617795D01*
G37*
G36*
X6950900Y32617795D02*
G01*
X6919604Y32438788D01*
X6850212Y32270221D01*
X6746090Y32120591D01*
X6612142Y31996947D01*
X6454675Y31905109D01*
X6281103Y31849404D01*
X6101184Y31832600D01*
X6098816Y31832600D01*
X5918896Y31849403D01*
X5745324Y31905109D01*
X5587858Y31996948D01*
X5453909Y32120592D01*
X5349788Y32270222D01*
X5280396Y32438789D01*
X5249100Y32617796D01*
X5249100Y33915400D01*
X6950900Y33915400D01*
X6950900Y32617795D01*
G37*
G36*
X9490900Y32617795D02*
G01*
X9459604Y32438788D01*
X9390212Y32270221D01*
X9286090Y32120591D01*
X9152142Y31996947D01*
X8994675Y31905109D01*
X8821103Y31849404D01*
X8641184Y31832600D01*
X8638816Y31832600D01*
X8458896Y31849403D01*
X8285324Y31905109D01*
X8127858Y31996948D01*
X7993909Y32120592D01*
X7889788Y32270222D01*
X7820396Y32438789D01*
X7789100Y32617796D01*
X7789100Y33915400D01*
X9490900Y33915400D01*
X9490900Y32617795D01*
G37*
G36*
X12030900Y32617795D02*
G01*
X11999604Y32438788D01*
X11930212Y32270221D01*
X11826090Y32120591D01*
X11692142Y31996947D01*
X11534675Y31905109D01*
X11361103Y31849404D01*
X11181184Y31832600D01*
X11178816Y31832600D01*
X10998896Y31849403D01*
X10825324Y31905109D01*
X10667858Y31996948D01*
X10533909Y32120592D01*
X10429788Y32270222D01*
X10360396Y32438789D01*
X10329100Y32617796D01*
X10329100Y33915400D01*
X12030900Y33915400D01*
X12030900Y32617795D01*
G37*
G36*
X14570900Y32617795D02*
G01*
X14539604Y32438788D01*
X14470212Y32270221D01*
X14366090Y32120591D01*
X14232142Y31996947D01*
X14074675Y31905109D01*
X13901103Y31849404D01*
X13721184Y31832600D01*
X13718816Y31832600D01*
X13538896Y31849403D01*
X13365324Y31905109D01*
X13207858Y31996948D01*
X13073909Y32120592D01*
X12969788Y32270222D01*
X12900396Y32438789D01*
X12869100Y32617796D01*
X12869100Y33915400D01*
X14570900Y33915400D01*
X14570900Y32617795D01*
G37*
G36*
X17110900Y32617795D02*
G01*
X17079604Y32438788D01*
X17010212Y32270221D01*
X16906090Y32120591D01*
X16772142Y31996947D01*
X16614675Y31905109D01*
X16441103Y31849404D01*
X16261184Y31832600D01*
X16258816Y31832600D01*
X16078896Y31849403D01*
X15905324Y31905109D01*
X15747858Y31996948D01*
X15613909Y32120592D01*
X15509788Y32270222D01*
X15440396Y32438789D01*
X15409100Y32617796D01*
X15409100Y33915400D01*
X17110900Y33915400D01*
X17110900Y32617795D01*
G37*
%TD*%
M02*
